<?xml version="1.0" standalone="no"?>
<!DOCTYPE svg PUBLIC "-//W3C//DTD SVG 20010904//EN"
 "http://www.w3.org/TR/2001/REC-SVG-20010904/DTD/svg10.dtd">
<svg version="1.0" xmlns="http://www.w3.org/2000/svg"
 width="1536.000000pt" height="1019.000000pt" viewBox="0 0 1536.000000 1019.000000"
 preserveAspectRatio="xMidYMid meet">

<g transform="translate(0.000000,1019.000000) scale(0.100000,-0.100000)"
fill="#000000" stroke="none">
<path d="M6836 7588 c-20 -23 -15 -42 17 -62 23 -15 57 18 49 47 -10 41 -38
48 -66 15z"/>
<path d="M6274 7487 l5 -43 -50 -21 c-45 -20 -51 -20 -65 -5 -12 11 -20 13
-33 5 -22 -14 -25 -47 -7 -85 9 -17 16 -33 16 -35 0 -1 -21 -3 -46 -3 -37 0
-47 4 -51 19 -9 37 -53 38 -53 2 0 -14 -21 -26 -83 -50 -46 -17 -95 -30 -108
-29 -19 2 -24 -2 -24 -19 0 -13 -6 -28 -12 -34 -9 -9 -13 -6 -18 14 -10 40
-31 53 -45 28 -12 -23 -35 -28 -45 -10 -4 5 1 19 10 29 15 17 15 21 -9 59 -23
36 -31 41 -64 41 -46 0 -80 -30 -53 -47 15 -9 14 -12 -3 -31 -10 -12 -21 -21
-25 -20 -18 2 -28 -3 -28 -16 0 -10 6 -12 21 -7 26 10 46 4 46 -15 0 -8 12
-20 26 -26 23 -11 24 -13 10 -24 -15 -10 -14 -13 7 -27 22 -14 23 -19 18 -91
-2 -33 -14 -8 -16 31 -1 36 -3 38 -30 35 -17 -2 -35 -8 -40 -12 -6 -5 -30 -4
-54 1 -24 5 -52 7 -62 4 -13 -4 -22 2 -34 24 -15 30 -15 31 5 31 16 0 20 7 20
30 0 23 4 30 20 30 11 0 20 5 20 11 0 7 -12 9 -35 5 -27 -5 -35 -4 -35 8 0 23
-22 31 -35 13 -17 -23 -20 -21 -22 13 -2 24 3 33 22 42 14 6 27 19 30 30 4 10
15 18 25 18 14 0 17 7 15 33 -3 44 -29 46 -68 6 -30 -32 -63 -44 -73 -27 -3 4
-21 8 -40 8 -22 0 -33 -4 -29 -10 4 -6 15 -8 25 -5 12 4 26 -2 39 -16 13 -15
21 -18 21 -9 0 7 3 11 6 8 3 -3 -2 -23 -11 -44 -8 -21 -13 -44 -11 -51 9 -22
-13 -25 -44 -6 -35 20 -39 33 -10 33 11 0 20 5 20 10 0 6 -9 10 -20 10 -11 0
-20 6 -20 13 0 9 -10 12 -30 9 -18 -3 -30 0 -30 7 0 6 9 11 20 11 25 0 26 27
1 35 -27 8 -67 -10 -92 -44 -12 -16 -32 -32 -44 -35 -13 -3 -31 -9 -41 -13
-14 -5 -16 -2 -12 15 l6 22 -25 -20 c-14 -11 -35 -20 -47 -20 -22 0 -51 34
-41 50 3 5 -5 10 -17 12 -25 4 -66 -17 -86 -44 -7 -10 -30 -23 -51 -29 -24 -7
-43 -21 -50 -35 -6 -13 -19 -24 -29 -24 -22 0 -42 -19 -42 -40 0 -8 -9 -21
-20 -28 -23 -14 -28 -67 -7 -76 6 -3 -8 -5 -33 -4 -71 1 -78 -1 -100 -24 -14
-16 -20 -35 -20 -71 0 -44 -2 -48 -22 -45 -13 2 -24 9 -24 16 -1 6 -2 14 -3
17 0 3 -15 -2 -32 -10 -17 -9 -33 -14 -37 -11 -4 5 -47 -55 -44 -61 1 -2 -19
-23 -43 -49 -25 -25 -43 -50 -40 -54 7 -12 -32 -23 -46 -14 -8 4 -9 3 -5 -4 4
-6 -1 -19 -11 -29 -10 -10 -17 -27 -15 -38 3 -17 1 -17 -7 -5 -8 11 -11 12
-11 2 0 -7 -6 -10 -12 -7 -7 4 -6 1 3 -7 9 -7 13 -20 11 -28 -3 -9 10 -3 32
14 40 30 60 29 33 -2 -20 -22 -22 -48 -4 -55 9 -4 9 -6 0 -6 -7 -1 -13 -12
-13 -24 0 -13 -8 -31 -18 -40 -16 -14 -21 -15 -37 -3 -15 11 -17 22 -12 66 6
52 6 52 -12 34 -10 -10 -18 -21 -18 -24 3 -18 -20 -59 -46 -82 -21 -19 -28
-33 -24 -48 3 -11 2 -20 -3 -20 -4 0 -10 -14 -14 -31 -4 -20 -10 -28 -18 -23
-8 5 -9 2 -4 -12 9 -22 9 -23 7 -47 -1 -11 -6 -15 -13 -11 -7 5 -8 3 -4 -5 5
-7 1 -18 -9 -25 -18 -13 -34 -76 -35 -135 0 -25 3 -32 15 -27 9 3 15 0 15 -8
0 -8 -6 -16 -14 -19 -24 -9 -39 -104 -32 -202 3 -50 6 -107 6 -127 0 -39 7
-47 27 -27 17 17 31 -18 38 -94 4 -41 2 -68 -5 -72 -5 -3 -10 -1 -10 5 0 6 -4
8 -10 5 -11 -7 -14 -58 -3 -68 3 -4 13 -1 21 5 13 11 14 3 7 -57 -4 -39 -10
-74 -14 -80 -4 -5 -8 -63 -10 -128 -2 -105 -1 -120 16 -132 17 -13 17 -14 1
-15 -10 0 -18 -5 -18 -11 0 -5 3 -8 8 -6 4 3 8 -38 9 -91 1 -57 7 -98 13 -102
8 -5 8 -16 -2 -41 -7 -19 -13 -55 -13 -81 0 -25 -3 -44 -7 -42 -4 3 -5 -51 -2
-118 3 -68 5 -132 5 -143 -2 -45 10 -83 28 -88 13 -3 21 -18 26 -46 7 -45 0
-65 -15 -41 -8 12 -10 9 -10 -11 0 -33 22 -79 38 -79 6 0 12 -4 12 -10 0 -5
-6 -10 -14 -10 -9 0 -12 -8 -8 -25 3 -20 7 -23 18 -14 10 8 14 2 19 -28 3 -21
8 -49 11 -63 2 -14 7 -47 10 -75 3 -27 9 -54 15 -60 5 -5 9 -20 9 -33 0 -13 4
-21 9 -17 5 3 12 1 16 -5 3 -5 1 -10 -4 -10 -15 0 -13 -47 2 -90 20 -53 80
-173 96 -189 11 -13 12 -10 6 20 l-7 34 21 -27 c11 -14 21 -35 21 -46 0 -12 5
-24 10 -27 16 -10 12 -28 -5 -21 -13 4 -14 2 -5 -15 6 -11 15 -17 21 -14 5 4
9 0 9 -9 0 -8 12 -33 27 -55 20 -30 31 -40 45 -35 10 3 18 0 18 -6 0 -6 -4 -8
-10 -5 -61 38 186 -221 270 -283 25 -18 74 -52 110 -75 36 -22 104 -66 151
-97 136 -89 523 -273 597 -284 48 -7 104 -27 178 -64 32 -16 95 -37 139 -46
44 -8 131 -29 194 -46 62 -16 135 -30 162 -30 28 0 82 -7 122 -15 40 -8 128
-19 197 -25 69 -6 188 -17 265 -25 205 -22 742 -38 1040 -32 362 8 626 38
1066 123 232 44 783 194 824 223 6 4 35 18 65 31 67 28 133 71 181 119 20 20
49 43 65 51 16 8 53 38 82 67 29 29 59 53 68 53 21 0 107 45 123 64 8 9 17 16
22 16 12 0 94 56 109 75 8 9 15 28 16 42 4 36 34 63 71 66 17 1 30 3 28 5 -6
7 169 172 189 178 29 10 133 81 190 131 26 24 53 43 59 43 23 0 95 92 107 136
7 25 20 48 29 52 9 3 20 10 24 16 5 6 6 1 2 -11 -5 -18 -2 -20 15 -16 15 4 18
9 10 18 -8 9 -8 15 0 20 7 4 3 16 -10 35 -24 34 -25 54 -2 99 24 50 39 49 52
-1 6 -24 14 -50 19 -58 10 -18 47 -20 44 -3 -2 7 11 22 27 35 17 12 30 27 30
32 0 6 16 24 35 39 20 16 33 32 30 37 -3 5 15 30 40 56 25 26 45 51 45 55 0 4
16 23 35 43 19 20 31 36 27 36 -4 0 -2 4 3 8 6 4 19 24 29 45 14 27 25 37 37
34 12 -3 16 0 12 9 -4 10 0 12 11 8 12 -5 15 -2 9 12 -5 13 -3 15 7 9 8 -5 11
-4 7 2 -7 11 40 113 53 113 16 0 31 58 25 94 -7 34 -6 36 19 36 14 0 26 -4 26
-10 0 -5 4 -10 9 -10 4 0 6 11 3 25 -3 17 4 36 21 58 14 19 27 49 29 68 2 19
8 33 13 32 6 -1 9 15 7 37 -3 28 -10 41 -23 45 -16 5 -18 13 -13 39 5 31 3 34
-26 44 -17 7 -29 16 -25 22 3 5 8 10 11 10 3 0 2 -4 -1 -10 -12 -19 42 -10 60
10 20 23 55 27 55 7 0 -7 6 -22 14 -32 12 -17 15 -18 30 -3 12 13 14 22 6 43
-7 17 -7 24 0 20 6 -3 10 -1 10 5 0 6 4 9 9 5 19 -11 23 19 28 170 3 103 1
155 -7 160 -5 3 -17 22 -25 41 -13 31 -16 33 -41 24 -25 -10 -31 -7 -64 30
-29 32 -36 46 -32 70 4 30 35 48 64 37 21 -7 48 12 48 34 0 27 -27 35 -49 15
-26 -24 -38 -20 -39 14 -2 74 -23 87 -71 44 -30 -27 -32 -54 -2 -54 14 0 14
-2 1 -10 -24 -16 -34 -11 -51 23 -19 38 -54 48 -64 18 -5 -16 -15 -21 -42 -21
-36 0 -36 0 -30 -37 4 -21 13 -43 21 -48 7 -6 15 -19 17 -30 3 -14 14 -21 37
-23 23 -2 36 -11 46 -30 24 -48 -2 -66 -57 -41 -31 14 -67 -3 -67 -31 0 -16
-7 -20 -36 -20 -35 0 -36 1 -30 30 8 44 -11 78 -47 82 -26 3 -32 10 -50 56
-19 51 -21 52 -56 50 -32 -3 -36 0 -39 23 -2 14 4 31 12 38 12 10 17 9 28 -8
7 -12 22 -21 33 -21 11 0 29 -7 39 -15 11 -8 31 -15 45 -15 l24 0 -22 24 c-15
16 -20 29 -15 38 5 7 9 20 9 28 0 8 6 14 13 12 8 -1 11 2 7 7 -3 6 4 15 15 21
11 6 20 17 20 25 0 9 10 15 26 15 20 0 25 -4 20 -17 -6 -16 -6 -16 11 0 13 11
23 13 33 7 24 -15 34 -12 19 6 -7 9 -12 30 -10 46 2 21 -4 35 -20 49 -20 17
-21 22 -9 29 8 6 18 10 23 10 10 0 9 30 -2 30 -5 0 -13 9 -16 20 -4 11 -21 28
-38 37 -39 20 -59 45 -47 57 6 6 1 14 -13 20 -12 7 -24 23 -25 36 -5 34 -39
69 -62 63 -11 -3 -33 6 -52 20 -18 14 -43 28 -55 31 -12 4 -35 24 -51 44 -31
39 -103 69 -152 63 -16 -2 -31 5 -45 22 -15 19 -25 23 -40 17 -19 -8 -19 -9 3
-9 13 -1 22 -7 22 -17 0 -9 9 -23 21 -33 15 -12 22 -32 26 -80 4 -40 2 -65 -5
-70 -14 -9 3 -29 56 -65 23 -16 42 -32 42 -37 0 -4 10 -9 23 -11 24 -3 32 -38
10 -45 -7 -3 -13 2 -13 11 0 9 -5 16 -11 16 -6 0 -17 7 -25 15 -18 18 -34 20
-34 4 0 -6 -9 -8 -22 -3 -17 5 -12 -4 21 -35 29 -27 41 -46 37 -57 -3 -8 -6
-18 -6 -20 0 -2 -18 -4 -40 -4 -27 0 -45 6 -58 20 -26 28 -92 61 -106 53 -6
-4 -17 -15 -24 -25 -11 -15 -17 -16 -35 -7 -36 19 -67 51 -67 71 0 10 -7 18
-15 18 -8 0 -15 9 -15 20 0 11 7 23 15 25 52 17 51 15 28 28 -64 36 -101 73
-107 106 -3 19 -15 44 -27 57 -11 12 -18 27 -14 33 15 25 53 9 106 -41 56 -54
124 -96 136 -85 3 4 -1 15 -11 26 -15 16 -15 19 -1 31 8 7 15 16 15 20 0 5
-23 34 -51 65 -51 55 -52 56 -73 37 -20 -17 -22 -17 -66 5 -24 13 -40 23 -35
23 9 1 -52 30 -62 30 -2 0 -2 -8 2 -19 3 -10 1 -29 -4 -42 -7 -17 -10 -19 -10
-6 -1 11 -9 17 -25 17 -21 0 -36 16 -36 40 0 4 14 13 31 21 l32 13 -23 18
c-13 11 -38 18 -62 18 -41 0 -76 14 -93 37 -6 7 -27 16 -48 20 -34 5 -41 2
-70 -30 l-33 -35 23 -22 c30 -29 34 -117 6 -127 -10 -3 -30 -15 -45 -25 -25
-17 -58 -24 -58 -13 0 17 50 57 64 52 24 -10 29 11 6 30 -12 11 -20 30 -20 50
0 30 -2 32 -28 27 -23 -5 -29 -1 -39 25 -12 32 -53 57 -64 38 -4 -5 -10 0 -14
12 -7 24 9 43 53 61 12 5 22 14 22 20 0 17 -29 11 -50 -10 -27 -27 -33 -26
-69 15 -24 28 -38 35 -66 35 -33 0 -35 -2 -35 -34 0 -25 -5 -35 -20 -39 -13
-3 -18 -10 -14 -21 10 -26 -11 -18 -36 14 -22 29 -70 43 -70 20 0 -5 -17 -10
-37 -10 -39 0 -93 39 -93 68 0 18 -40 51 -61 52 -9 0 -19 -6 -22 -14 -3 -7
-15 -16 -26 -19 -26 -6 -29 20 -5 38 17 12 18 10 -25 93 -26 50 -16 82 24 82
14 0 25 4 25 8 0 5 17 13 38 19 l37 11 -36 -5 c-21 -3 -51 2 -73 11 -44 19
-60 13 -52 -19 4 -14 1 -25 -8 -28 -22 -9 -27 -59 -7 -82 41 -46 59 -171 31
-215 -8 -12 -12 -11 -32 6 -13 11 -31 19 -40 17 -14 -4 -15 -9 -6 -34 6 -17 8
-33 4 -36 -3 -4 -6 1 -6 11 0 9 -11 22 -25 28 -40 18 -29 62 15 63 9 0 16 11
18 28 3 23 0 27 -22 27 -14 0 -31 -9 -40 -22 -20 -28 -21 -95 -2 -113 14 -14
11 -61 -5 -71 -5 -3 -9 -16 -9 -30 0 -27 -7 -30 -29 -10 -19 16 -81 31 -81 19
1 -14 27 -43 38 -43 6 0 16 -9 22 -20 7 -14 7 -20 0 -20 -16 0 -12 -47 5 -54
23 -9 18 -28 -7 -24 -19 2 -22 8 -20 36 3 26 -3 37 -29 60 -18 15 -36 26 -41
25 -4 -2 -5 3 -2 10 8 22 -20 50 -44 43 -12 -4 -22 -13 -22 -20 0 -13 -35 -12
-70 1 -8 4 -19 5 -24 4 -30 -7 -54 11 -66 51 -7 26 -15 37 -18 28 -3 -8 -11
-19 -19 -23 -7 -5 -11 -12 -8 -17 9 -14 -71 28 -85 45 -11 13 -9 19 10 40 22
23 23 23 42 5 11 -10 17 -23 14 -29 -4 -5 -2 -12 4 -16 6 -3 13 1 16 9 8 20
40 21 48 1 3 -9 12 -12 21 -9 11 5 18 0 22 -14 4 -18 8 -19 34 -10 29 10 29
11 13 29 -10 11 -30 19 -48 19 -20 0 -37 7 -46 20 -8 11 -20 20 -27 20 -7 0
-20 14 -28 31 -11 19 -22 29 -31 25 -10 -4 -14 2 -14 18 0 40 -11 56 -47 71
-44 18 -44 18 -37 0 4 -8 -1 -17 -10 -21 -37 -14 -8 -68 31 -58 18 5 21 3 16
-16 -5 -21 -3 -22 25 -18 18 2 32 1 32 -4 0 -4 -6 -8 -14 -8 -8 0 -16 -7 -20
-15 -12 -33 -93 -5 -102 35 -12 52 -15 59 -29 54 -18 -7 -28 11 -20 37 4 12
12 18 21 15 10 -4 18 11 30 51 16 54 16 57 -2 70 -10 7 -23 13 -30 13 -7 0
-15 10 -17 23 -3 13 -5 8 -6 -15 -1 -39 -6 -44 -30 -29 -13 9 -53 -2 -74 -20
-5 -4 1 -16 14 -27 16 -16 19 -25 12 -34 -14 -18 -9 -88 8 -98 19 -12 -7 -40
-36 -40 -13 0 -25 -4 -27 -9 -1 -5 -21 -12 -43 -15 -33 -6 -45 -3 -65 15 -14
11 -24 25 -22 30 1 5 -7 9 -18 9 -15 0 -20 7 -20 26 0 33 -17 64 -34 64 -9 0
-12 7 -9 19 6 24 31 17 35 -10 4 -24 24 -21 21 3 -2 10 7 22 18 28 11 7 30 21
41 32 16 16 18 22 7 29 -8 5 -24 9 -36 9 -38 0 -35 19 7 37 22 10 40 21 40 25
0 15 -47 8 -71 -10 -54 -42 -89 -27 -89 38 0 23 -4 30 -20 30 -11 0 -20 -3
-20 -7 0 -5 -11 -8 -25 -8 -21 0 -23 2 -10 11 12 9 3 11 -38 11 -76 1 -87 2
-87 11 0 14 90 35 123 28 80 -15 137 -11 137 9 0 21 -27 30 -44 16 -11 -9 -17
-8 -27 2 -8 7 -22 16 -33 20 -11 5 -16 13 -12 23 3 9 6 19 6 24 0 5 10 11 23
13 12 2 1 3 -24 1 -44 -4 -49 -2 -92 41 -25 25 -49 45 -52 45 -3 0 -3 -15 0
-33 5 -24 2 -37 -9 -46 -14 -12 -20 -10 -42 13 -15 14 -30 26 -34 26 -17 0
-19 -15 -5 -37 10 -14 11 -23 4 -23 -6 0 -19 -10 -30 -22 -18 -22 -20 -22 -33
-5 -14 18 -51 23 -61 7 -14 -22 8 -60 39 -68 41 -11 41 -41 1 -62 -16 -8 -33
-18 -36 -23 -8 -11 -59 39 -59 58 0 9 5 25 10 36 8 15 7 19 -5 19 -8 0 -15 -6
-15 -12 0 -9 -4 -8 -11 2 -8 12 -9 9 -5 -12 6 -26 6 -26 -24 -12 -40 20 -42
26 -24 63 12 24 20 30 35 26 14 -5 19 -2 19 10 0 14 6 16 34 11 21 -4 37 -2
41 4 10 16 0 23 -32 24 -22 1 -29 7 -33 29 -8 44 -88 74 -129 48 -11 -7 -9
-13 8 -30 12 -12 19 -26 16 -31 -9 -14 -56 -12 -85 3 -21 11 -29 11 -47 0 -14
-10 -23 -11 -28 -4 -3 6 -24 11 -46 11 -31 0 -39 -4 -39 -18 0 -22 41 -44 59
-33 7 5 29 0 49 -10 32 -17 38 -17 59 -4 30 20 52 19 60 -2 3 -10 12 -25 20
-34 21 -24 -5 -40 -66 -41 -42 0 -51 -3 -51 -18 0 -10 -7 -23 -16 -30 -13 -11
-16 -10 -21 8 -3 13 -15 22 -31 24 -14 2 -28 10 -32 18 -4 8 -13 27 -21 43 -7
15 -20 27 -29 27 -22 0 -55 36 -41 45 6 3 11 16 11 27 0 21 0 21 -25 -2 l-25
-23 -25 23 c-15 14 -21 26 -15 30 6 4 8 14 5 22 -5 12 -19 16 -50 16 -25 -1
-55 6 -70 16 -15 10 -34 14 -46 11 -33 -11 -69 3 -79 30 -11 30 -51 33 -105
11 -30 -13 -36 -13 -43 0 -4 8 -21 18 -38 23 -20 5 -30 15 -32 32 -4 29 -22
51 -22 27 0 -9 -13 -26 -30 -38 -29 -21 -30 -21 -54 -3 -14 10 -25 23 -24 28
2 25 -3 35 -17 35 -8 0 -15 -4 -15 -10 0 -5 -11 -10 -25 -10 -27 0 -33 18 -13
38 9 9 8 12 -5 12 -11 0 -17 -8 -17 -22 0 -40 -13 -48 -63 -43 -44 6 -62 -4
-37 -20 19 -12 10 -23 -24 -27 -19 -2 -42 2 -51 8 -9 7 -23 10 -31 7 -20 -7
-14 18 8 35 23 17 13 41 -15 35 -48 -11 -50 -12 -36 -29 14 -18 5 -27 -43 -46
-18 -6 -28 -17 -28 -30 0 -19 4 -20 45 -15 42 6 45 5 51 -19 10 -38 -7 -49
-58 -38 -37 8 -43 13 -50 44 -15 63 -15 65 20 68 28 3 31 6 22 23 -14 24 -37
25 -45 0 -3 -10 -14 -21 -24 -24 -11 -2 -21 -15 -23 -28 -5 -33 -26 -35 -34
-2 -4 15 -12 31 -18 35 -8 5 -7 8 1 8 7 0 26 21 43 46 31 43 31 46 14 65 -27
30 -35 23 -30 -24z m371 -97 c18 -8 17 -9 -7 -9 -16 -1 -28 4 -28 9 0 12 8 12
35 0z m-375 -112 c0 -12 -17 -10 -57 7 -29 12 -33 18 -23 30 10 12 16 11 46
-8 18 -12 34 -25 34 -29z m592 29 c18 -27 8 -39 -30 -36 -21 2 -43 0 -49 -4
-15 -9 -65 2 -75 17 -14 20 -8 26 21 26 17 0 33 5 37 11 8 14 85 3 96 -14z
m54 -44 c-8 -8 -36 5 -36 17 0 7 6 7 21 0 11 -7 18 -14 15 -17z m72 -10 c13
-21 13 -23 -2 -23 -10 0 -14 4 -11 10 3 5 -6 12 -20 16 -30 8 -34 27 -4 22 12
-2 28 -13 37 -25z m-2132 6 c9 -15 -15 -29 -50 -29 l-29 0 23 20 c26 22 45 26
56 9z m2374 -5 c0 -8 -4 -12 -10 -9 -5 3 -10 10 -10 16 0 5 5 9 10 9 6 0 10
-7 10 -16z m-2526 -15 c-4 -7 4 -20 17 -30 l24 -19 -42 0 c-24 0 -43 2 -43 4
0 20 23 56 35 56 10 0 13 -5 9 -11z m1601 2 c3 -5 0 -21 -7 -36 -10 -22 -13
-23 -20 -10 -16 28 10 73 27 46z m-1195 -21 c8 -5 12 -11 10 -14 -3 -2 -14 2
-24 10 -22 15 -10 19 14 4z m2180 1 c0 -6 -4 -13 -10 -16 -5 -3 -10 1 -10 9 0
9 5 16 10 16 6 0 10 -4 10 -9z m-2017 -44 c-3 -12 -10 -28 -16 -34 -11 -15
-51 -17 -77 -3 -20 11 -50 -13 -30 -25 20 -12 10 -25 -19 -25 -18 0 -41 -10
-58 -26 -25 -23 -28 -24 -34 -7 -4 10 -8 12 -8 6 -1 -15 -21 -18 -21 -3 0 6 9
19 20 30 11 11 20 26 20 33 0 26 21 37 44 22 19 -13 27 -12 71 10 26 14 54 25
60 25 7 0 18 7 25 15 17 20 29 10 23 -18z m1293 5 c-8 -9 -19 -13 -22 -9 -10
9 16 38 28 31 6 -4 4 -13 -6 -22z m-1546 9 c0 -5 -13 -16 -30 -25 -38 -18 -39
-6 -2 16 32 21 32 21 32 9z m1250 -16 c0 -2 -7 -5 -15 -9 -9 -3 -15 0 -15 9 0
9 6 12 15 9 8 -4 15 -7 15 -9z m-240 -32 c-1 -24 -2 -26 -11 -10 -5 9 -7 22
-4 27 10 17 15 11 15 -17z m550 -9 c0 -8 -4 -14 -9 -14 -12 0 -32 26 -25 33
10 9 34 -4 34 -19z m-1594 -21 c-8 -8 -36 5 -36 17 0 7 6 7 21 0 11 -7 18 -14
15 -17z m1258 21 c22 -9 20 -24 -3 -24 -28 0 -52 11 -45 21 6 10 26 12 48 3z
m-1499 -19 c0 -5 -10 -11 -22 -13 -16 -2 -23 2 -23 13 0 11 7 15 23 13 12 -2
22 -7 22 -13z m1050 -11 c0 -16 -8 -19 -47 -21 -48 -2 -59 6 -35 25 12 10 55
21 72 17 6 -1 10 -10 10 -21z m380 16 c3 -5 1 -10 -4 -10 -6 0 -11 5 -11 10 0
6 2 10 4 10 3 0 8 -4 11 -10z m715 2 c0 -10 -22 -32 -31 -32 -4 0 -7 9 -6 20
1 19 37 30 37 12z m1281 -4 c19 0 29 -4 29 -14 0 -8 -9 -14 -20 -14 -11 0 -20
-6 -20 -12 0 -7 -5 -5 -11 5 -5 9 -17 17 -24 17 -8 0 -15 4 -15 8 0 14 12 22
23 15 5 -3 23 -6 38 -5z m-2127 -24 c9 -22 -3 -32 -14 -14 -12 19 -12 30 -1
30 5 0 12 -7 15 -16z m1106 6 c0 -5 -4 -10 -10 -10 -5 0 -10 5 -10 10 0 6 5
10 10 10 6 0 10 -4 10 -10z m-80 -7 c0 -5 -4 -15 -10 -23 -11 -18 -25 -7 -17
15 6 15 27 21 27 8z m-680 -18 c0 -18 -55 -21 -66 -3 -5 8 0 9 14 6 12 -4 22
-2 22 3 0 5 7 9 15 9 8 0 15 -7 15 -15z m860 0 c0 -8 -4 -15 -9 -15 -5 0 -14
7 -21 15 -10 13 -9 15 9 15 12 0 21 -6 21 -15z m-2034 -4 c-3 -5 -15 -7 -26
-4 -28 7 -25 13 6 13 14 0 23 -4 20 -9z m230 -2 c5 -8 -3 -10 -25 -7 -19 3
-36 -1 -42 -9 -6 -7 -17 -13 -23 -13 -6 1 0 10 13 20 26 22 66 26 77 9z m844
1 c0 -5 -2 -10 -4 -10 -3 0 -8 5 -11 10 -3 6 -1 10 4 10 6 0 11 -4 11 -10z
m-1050 -31 c0 -5 -7 -9 -15 -9 -15 0 -20 12 -9 23 8 8 24 -1 24 -14z m550 5
c0 -19 -31 -25 -61 -12 -42 19 -36 28 16 26 28 -1 45 -6 45 -14z m2282 -5 c38
-27 36 -63 -5 -67 -38 -5 -57 14 -57 54 0 41 18 44 62 13z m-2555 5 c-3 -3
-12 -4 -19 -1 -8 3 -5 6 6 6 11 1 17 -2 13 -5z m1133 -4 c0 -12 -35 -31 -44
-23 -15 15 -4 33 19 33 14 0 25 -4 25 -10z m1088 -13 c2 -12 -3 -17 -17 -17
-12 0 -21 6 -21 13 0 31 32 34 38 4z m-1378 4 c0 -5 -7 -11 -14 -14 -10 -4
-13 -1 -9 9 6 15 23 19 23 5z m-950 -10 c0 -16 -15 -20 -41 -14 l-24 7 25 7
c36 10 40 10 40 0z m570 -10 c0 -12 -23 -31 -37 -31 -8 0 -26 8 -41 18 l-26
17 34 5 c38 6 70 2 70 -9z m124 2 c9 -21 -7 -31 -44 -25 -35 5 -35 6 -14 26
20 21 50 20 58 -1z m298 -5 c-3 -11 3 -25 14 -33 11 -8 14 -15 8 -15 -14 0
-30 18 -38 46 -4 14 -2 21 7 21 9 0 12 -7 9 -19z m333 12 c8 -13 -5 -13 -25 0
-13 8 -13 10 2 10 9 0 20 -4 23 -10z m65 0 c0 -5 -7 -10 -16 -10 -8 0 -12 5
-9 10 3 6 10 10 16 10 5 0 9 -4 9 -10z m260 -10 c0 -13 -11 -13 -30 0 -12 8
-11 10 8 10 12 0 22 -4 22 -10z m526 -57 c-11 -12 -24 10 -21 35 5 40 6 40 16
3 6 -18 8 -35 5 -38z m-1746 36 c0 -12 -37 -12 -44 0 -3 4 -3 11 0 14 8 7 44
-4 44 -14z m864 -24 c11 0 21 -5 23 -11 4 -12 -61 -13 -73 -2 -3 4 -3 15 0 25
7 16 9 16 19 3 7 -8 21 -15 31 -15z m516 15 c0 -5 -5 -10 -11 -10 -5 0 -7 5
-4 10 3 6 8 10 11 10 2 0 4 -4 4 -10z m-70 -10 c0 -5 -5 -10 -11 -10 -5 0 -7
5 -4 10 3 6 8 10 11 10 2 0 4 -4 4 -10z m-2450 -10 c12 -8 11 -10 -7 -10 -13
0 -23 5 -23 10 0 13 11 13 30 0z m1051 -5 c-1 -15 -24 -12 -29 3 -3 9 2 13 12
10 10 -1 17 -7 17 -13z m1529 3 c0 -7 -7 -22 -15 -32 -14 -19 -15 -19 -15 5 0
14 3 29 7 32 10 11 23 8 23 -5z m-1070 -20 c0 -26 -18 -31 -45 -14 -13 9 -31
16 -40 16 -8 0 -15 4 -15 10 0 5 22 8 50 7 39 -2 50 -6 50 -19z m1350 -18 c30
0 42 -21 20 -35 -18 -11 -10 -25 14 -25 23 0 66 -40 66 -61 0 -8 -59 -1 -69 7
-2 2 2 10 8 18 11 13 8 16 -13 22 -19 4 -26 13 -26 29 0 27 -33 37 -62 21 -26
-16 -43 5 -28 34 11 20 13 20 35 6 14 -9 38 -16 55 -16z m128 2 c11 -15 14
-15 22 -2 13 21 34 -2 25 -29 -9 -30 -60 -29 -68 0 -4 14 -11 20 -21 16 -9 -4
-21 4 -31 20 l-17 26 38 -7 c22 -4 45 -15 52 -24z m381 13 c9 -1 15 -8 13 -15
-1 -7 3 -18 9 -26 18 -22 3 -28 -23 -10 -12 9 -32 16 -43 17 -11 0 -14 3 -8 6
10 3 10 10 2 25 -10 18 -8 19 11 13 13 -4 30 -8 39 -10z m221 1 c0 -7 -11 -21
-24 -30 -34 -22 -47 0 -15 25 29 22 39 24 39 5z m-377 -14 c10 -11 18 -39 19
-68 3 -49 3 -49 -27 -48 -82 3 -165 21 -165 35 0 4 11 17 24 30 18 17 22 27
14 36 -12 15 0 17 22 3 9 -5 19 -5 27 2 9 7 17 7 28 -2 13 -10 15 -9 15 9 0
26 21 27 43 3z m-3348 -2 c3 -5 1 -10 -4 -10 -6 0 -11 5 -11 10 0 6 2 10 4 10
3 0 8 -4 11 -10z m3605 -25 c-12 -15 -30 -12 -30 6 0 5 10 9 21 9 18 0 19 -2
9 -15z m-2070 -5 c0 -12 -28 -25 -36 -17 -9 9 6 27 22 27 8 0 14 -5 14 -10z
m-1215 -10 c3 -5 1 -10 -4 -10 -6 0 -11 5 -11 10 0 6 2 10 4 10 3 0 8 -4 11
-10z m508 -10 c-3 -11 -9 -20 -14 -20 -10 0 -12 24 -2 33 13 13 21 7 16 -13z
m2267 -5 c0 -8 -4 -15 -10 -15 -5 0 -10 7 -10 15 0 8 5 15 10 15 6 0 10 -7 10
-15z m-134 -4 c-10 -15 5 -42 22 -39 8 2 17 -3 19 -9 6 -17 -27 -16 -49 1 -21
16 -23 27 -6 44 14 14 22 16 14 3z m529 -29 c-8 -9 -35 20 -28 31 4 6 11 3 19
-8 8 -10 12 -21 9 -23z m152 -2 c7 0 14 -9 18 -19 3 -11 13 -22 21 -25 11 -4
14 -14 10 -33 -8 -36 0 -47 47 -67 22 -9 36 -20 32 -26 -5 -8 -11 -7 -21 1
-11 9 -17 9 -28 0 -10 -9 -15 -8 -19 3 -3 8 -16 16 -29 18 -13 2 -24 9 -24 16
-1 6 -2 15 -3 19 0 3 -12 -4 -26 -17 -16 -15 -25 -19 -25 -10 0 7 -7 21 -16
31 -15 17 -15 20 5 45 28 35 27 39 -10 41 -45 3 -48 12 -14 39 29 23 30 23 50
4 12 -11 26 -20 32 -20z m-3402 20 c-3 -5 -12 -10 -18 -10 -7 0 -6 4 3 10 19
12 23 12 15 0z m655 -1 c0 -11 -37 -12 -43 -1 -3 4 6 8 19 8 13 1 24 -2 24 -7z
m2265 -9 c3 -5 -3 -10 -15 -10 -12 0 -18 5 -15 10 3 6 10 10 15 10 5 0 12 -4
15 -10z m-913 -40 c21 0 24 -16 6 -23 -19 -7 -68 21 -68 39 0 13 2 13 22 0 12
-9 30 -16 40 -16z m-1992 10 c0 -5 -4 -10 -10 -10 -5 0 -10 5 -10 10 0 6 5 10
10 10 6 0 10 -4 10 -10z m650 -1 c0 -17 32 -38 58 -39 25 0 29 -21 8 -39 -11
-9 -19 -9 -35 1 -12 7 -21 17 -21 23 0 6 -9 18 -20 28 -12 10 -18 22 -15 27 8
14 25 13 25 -1z m-295 -9 c-3 -5 -10 -10 -16 -10 -5 0 -9 5 -9 10 0 6 7 10 16
10 8 0 12 -4 9 -10z m2315 6 c0 -2 -7 -6 -15 -10 -8 -3 -15 -1 -15 4 0 6 7 10
15 10 8 0 15 -2 15 -4z m-130 -25 c-14 -27 -30 -36 -30 -17 0 8 8 20 18 25 23
14 24 14 12 -8z m-2920 5 c0 -3 -4 -8 -10 -11 -5 -3 -10 -1 -10 4 0 6 5 11 10
11 6 0 10 -2 10 -4z m-100 -16 c0 -5 -4 -10 -8 -10 -5 0 -15 -11 -22 -25 -18
-34 -22 -26 -8 13 11 30 38 45 38 22z m2195 -10 c3 -5 1 -10 -4 -10 -6 0 -11
5 -11 10 0 6 2 10 4 10 3 0 8 -4 11 -10z m1561 -23 c20 -12 17 -39 -3 -35 -17
3 -36 52 -25 63 4 3 8 0 11 -7 2 -7 10 -17 17 -21z m-3513 16 c-7 -2 -13 -11
-13 -18 0 -8 -4 -17 -10 -20 -6 -4 -10 5 -10 19 0 21 5 26 23 25 12 0 16 -3
10 -6z m2597 3 c0 -11 -19 -15 -25 -6 -3 5 1 10 9 10 9 0 16 -2 16 -4z m790
-22 c0 -8 -4 -12 -10 -9 -5 3 -10 10 -10 16 0 5 5 9 10 9 6 0 10 -7 10 -16z
m-3334 -21 c-10 -10 -19 5 -10 18 6 11 8 11 12 0 2 -7 1 -15 -2 -18z m54 18
c0 -5 -6 -14 -14 -20 -11 -9 -16 -9 -21 0 -4 6 -1 15 6 20 18 11 29 11 29 0z
m2380 -1 c12 -8 10 -10 -8 -10 -15 0 -26 -7 -29 -20 -7 -28 -23 -25 -23 4 0
22 8 28 40 35 3 0 12 -4 20 -9z m185 0 c3 -5 1 -10 -4 -10 -6 0 -11 5 -11 10
0 6 2 10 4 10 3 0 8 -4 11 -10z m295 -10 c0 -5 -4 -10 -10 -10 -5 0 -10 5 -10
10 0 6 5 10 10 10 6 0 10 -4 10 -10z m380 -20 c0 -5 -7 -7 -15 -4 -8 4 -12 10
-9 15 6 11 24 2 24 -11z m65 0 c-3 -5 -10 -10 -16 -10 -5 0 -9 5 -9 10 0 6 7
10 16 10 8 0 12 -4 9 -10z m-1045 -10 c0 -5 -2 -10 -4 -10 -3 0 -8 5 -11 10
-3 6 -1 10 4 10 6 0 11 -4 11 -10z m-2130 -4 c0 -3 -4 -8 -10 -11 -5 -3 -10
-1 -10 4 0 6 5 11 10 11 6 0 10 -2 10 -4z m2954 -25 c-10 -10 -23 -16 -27 -14
-5 3 0 11 10 19 27 20 39 17 17 -5z m-2469 -1 c3 -5 1 -10 -4 -10 -6 0 -11 5
-11 10 0 6 2 10 4 10 3 0 8 -4 11 -10z m2787 -15 c4 -19 1 -25 -13 -25 -24 0
-33 18 -19 35 18 21 27 18 32 -10z m-1282 11 c0 -3 -4 -8 -10 -11 -5 -3 -10
-1 -10 4 0 6 5 11 10 11 6 0 10 -2 10 -4z m-2486 -15 c3 -5 -5 -16 -18 -24
-20 -13 -27 -14 -41 -3 -10 7 -15 18 -11 24 8 14 62 16 70 3z m1586 -37 c0 -7
-4 -16 -10 -19 -5 -3 -7 0 -4 8 3 8 1 18 -5 22 -6 3 -11 11 -11 17 0 7 6 6 15
-2 8 -7 15 -18 15 -26z m150 26 c0 -5 -4 -10 -10 -10 -5 0 -10 5 -10 10 0 6 5
10 10 10 6 0 10 -4 10 -10z m3898 -21 c-2 -6 -8 -10 -13 -10 -5 0 -11 4 -13
10 -2 6 4 11 13 11 9 0 15 -5 13 -11z m-3928 -9 c0 -5 -7 -10 -15 -10 -8 0
-15 5 -15 10 0 6 7 10 15 10 8 0 15 -4 15 -10z m1111 -7 c13 -16 12 -17 -3 -4
-10 7 -18 15 -18 17 0 8 8 3 21 -13z m1495 3 c5 -12 67 -32 87 -28 13 3 7 -15
-10 -30 -31 -26 -51 -29 -58 -7 -5 14 -12 18 -26 14 -33 -11 -53 22 -40 63 3
9 43 -1 47 -12z m-696 0 c0 -3 -4 -8 -10 -11 -5 -3 -10 -1 -10 4 0 6 5 11 10
11 6 0 10 -2 10 -4z m118 -5 c14 -8 13 -42 0 -42 -4 0 -21 -4 -38 -9 -18 -5
-30 -5 -30 1 0 5 7 9 16 9 10 0 14 6 11 14 -3 7 0 19 6 25 13 13 18 13 35 2z
m112 -22 c0 -6 -4 -7 -10 -4 -5 3 -10 11 -10 16 0 6 5 7 10 4 6 -3 10 -11 10
-16z m1446 -52 c-6 -38 -10 -44 -26 -40 -31 8 -45 30 -30 48 7 9 10 18 6 22
-3 3 2 15 11 25 14 16 19 17 31 4 11 -10 13 -26 8 -59z m-2949 47 c-3 -3 -12
-4 -19 -1 -8 3 -5 6 6 6 11 1 17 -2 13 -5z m3318 -14 c16 -18 16 -20 1 -26
-20 -8 -21 -6 -30 24 -9 27 5 29 29 2z m-3280 -20 c3 -5 -1 -10 -9 -10 -9 0
-16 5 -16 10 0 6 4 10 9 10 6 0 13 -4 16 -10z m-770 -10 c-3 -5 -11 -10 -16
-10 -6 0 -7 5 -4 10 3 6 11 10 16 10 6 0 7 -4 4 -10z m4016 0 c20 -11 26 -40
8 -40 -23 0 -48 21 -43 35 7 18 10 18 35 5z m-3761 -4 c0 -3 -4 -8 -10 -11 -5
-3 -10 -1 -10 4 0 6 5 11 10 11 6 0 10 -2 10 -4z m1030 -16 c10 -10 15 -22 11
-24 -10 -6 -68 20 -76 35 -12 18 45 9 65 -11z m513 -14 c26 -8 21 -20 -15 -31
-36 -11 -68 -9 -68 6 0 19 35 45 50 38 8 -4 23 -10 33 -13z m411 9 c21 -16 14
-35 -14 -35 -23 0 -32 13 -24 34 7 19 13 20 38 1z m1382 1 c8 -8 14 -24 14
-35 0 -11 10 -25 21 -32 17 -9 20 -17 16 -46 -5 -28 -3 -34 11 -32 38 3 51 -1
46 -16 -5 -12 -10 -13 -20 -4 -11 9 -14 8 -15 -7 0 -11 -3 -14 -6 -6 -3 9 -16
11 -40 6 -28 -5 -38 -2 -55 16 -12 13 -17 25 -11 29 15 10 24 43 15 55 -9 11
-4 86 5 86 2 0 11 -6 19 -14z m834 -6 c23 -23 19 -40 -10 -40 -20 0 -32 22
-24 45 8 19 10 19 34 -5z m-1521 -4 c9 -11 7 -12 -12 -9 -14 3 -31 -2 -41 -12
-11 -12 -21 -14 -27 -8 -15 15 12 32 62 42 4 0 12 -5 18 -13z m-4779 -26 c0
-23 -18 -36 -32 -22 -7 7 -6 17 2 31 13 24 30 19 30 -9z m3787 4 c-9 -9 -28 6
-21 18 4 6 10 6 17 -1 6 -6 8 -13 4 -17z m90 -19 c-2 -5 -13 -11 -24 -13 -12
-2 -23 -12 -26 -23 -3 -10 -11 -19 -19 -19 -18 0 -18 52 0 58 6 2 12 13 12 23
0 20 1 20 30 2 17 -9 29 -22 27 -28z m719 35 c8 0 14 -7 14 -16 0 -13 -7 -15
-31 -10 -26 5 -30 3 -25 -10 4 -11 1 -14 -11 -12 -22 4 -29 28 -9 28 9 0 16 7
16 16 0 11 5 14 16 10 9 -3 22 -6 30 -6z m1269 -14 c9 -14 23 -22 33 -20 25 6
35 -5 53 -58 18 -53 18 -55 -6 -31 -12 12 -22 14 -34 7 -35 -20 -66 -5 -89 42
-19 39 -25 44 -45 38 -29 -9 -39 -24 -32 -49 3 -11 9 -35 12 -54 5 -29 3 -33
-13 -29 -13 2 -21 14 -24 38 -6 40 -35 50 -35 13 0 -13 -6 -28 -12 -34 -15
-15 -51 37 -59 87 l-6 40 39 -4 c23 -2 58 4 88 17 70 28 111 27 130 -3z
m-2115 -1 c0 -8 -4 -15 -10 -15 -5 0 -10 7 -10 15 0 8 5 15 10 15 6 0 10 -7
10 -15z m185 5 c-3 -5 -11 -10 -16 -10 -6 0 -7 5 -4 10 3 6 11 10 16 10 6 0 7
-4 4 -10z m543 1 c10 -6 10 -10 -2 -20 -11 -10 -19 -9 -35 1 -12 7 -21 16 -21
20 0 11 42 10 58 -1z m-3435 -8 c-7 -2 -19 -2 -25 0 -7 3 -2 5 12 5 14 0 19
-2 13 -5z m2939 -8 c0 -5 -5 -11 -11 -13 -6 -2 -11 4 -11 13 0 9 5 15 11 13 6
-2 11 -8 11 -13z m1392 -4 c17 -18 15 -41 -3 -41 -7 0 -31 43 -31 55 0 11 18
3 34 -14z m-1240 -22 c-9 -10 -21 -16 -26 -13 -5 3 -2 14 8 25 9 10 21 16 26
13 5 -3 2 -14 -8 -25z m266 21 c0 -5 -4 -10 -10 -10 -5 0 -10 5 -10 10 0 6 5
10 10 10 6 0 10 -4 10 -10z m-1500 -10 c0 -5 -5 -10 -11 -10 -5 0 -7 5 -4 10
3 6 8 10 11 10 2 0 4 -4 4 -10z m3520 -4 c0 -3 -4 -8 -10 -11 -5 -3 -10 -1
-10 4 0 6 5 11 10 11 6 0 10 -2 10 -4z m-2476 -85 c-7 -8 -26 -14 -43 -13 -35
1 -63 -24 -37 -34 23 -9 20 -23 -4 -21 -12 1 -20 8 -20 19 0 14 -8 18 -41 18
-58 0 -46 25 12 26 47 1 79 11 79 25 0 5 -6 9 -14 9 -7 0 -16 9 -19 20 -4 17
-2 18 13 10 11 -6 22 -15 25 -20 13 -21 35 -10 36 18 0 26 1 26 13 -8 10 -28
10 -38 0 -49z m1383 52 c-3 -3 -11 -2 -17 2 -9 6 -9 10 1 16 14 8 27 -7 16
-18z m-1277 -8 c0 -8 -4 -15 -10 -15 -5 0 -10 7 -10 15 0 8 5 15 10 15 6 0 10
-7 10 -15z m139 6 c8 -5 11 -16 6 -30 -5 -17 -12 -20 -28 -15 -34 10 -42 21
-27 39 14 17 29 19 49 6z m529 -21 c-5 -34 -1 -37 17 -14 9 13 16 14 33 5 18
-9 23 -8 33 10 8 17 17 20 40 15 16 -3 29 -1 29 4 0 18 29 10 50 -12 12 -13
31 -23 43 -23 13 0 21 -6 19 -13 -2 -10 4 -10 25 1 20 11 35 12 53 5 23 -9 24
-10 8 -22 -23 -17 -23 -26 -1 -26 21 0 63 -39 63 -57 0 -9 7 -13 18 -11 17 4
18 10 8 38 -3 8 -2 21 3 29 14 22 41 -5 41 -40 0 -16 5 -29 10 -29 6 0 10 -5
10 -11 0 -5 -4 -7 -10 -4 -6 4 -10 -5 -10 -20 0 -19 5 -25 17 -23 19 3 31 -28
16 -43 -16 -16 -67 18 -79 53 -8 26 -16 32 -32 30 -13 -2 -22 2 -22 10 0 8
-13 19 -30 25 -20 8 -30 18 -30 32 0 27 -16 27 -23 1 -3 -11 -10 -20 -16 -20
-6 0 -20 9 -31 20 -11 11 -33 20 -48 20 -15 0 -33 5 -40 12 -9 9 -12 9 -12 0
0 -7 -9 -12 -21 -12 -12 0 -19 -5 -16 -12 2 -7 14 -12 26 -11 27 3 27 -13 1
-27 -11 -6 -20 -20 -20 -31 0 -14 -5 -19 -14 -16 -7 3 -18 1 -23 -4 -28 -28
-73 -18 -117 26 -14 14 -30 25 -36 25 -6 0 -6 7 2 19 10 16 9 23 -5 39 -22 24
-21 32 2 32 14 0 18 -5 14 -18 -3 -12 4 -22 21 -30 31 -14 32 -8 6 25 -11 14
-20 39 -20 54 0 25 4 29 26 29 23 0 26 -3 22 -30z m1352 -5 c0 -24 -1 -24 -20
-8 -14 12 -16 20 -9 30 15 18 29 7 29 -22z m-900 -25 c0 -14 -15 -19 -29 -10
-17 10 -5 31 14 23 8 -3 15 -9 15 -13z m-3030 0 c-20 -13 -33 -13 -25 0 3 6
14 10 23 10 15 0 15 -2 2 -10z m1342 -2 c-9 -9 -15 -9 -24 0 -9 9 -7 12 12 12
19 0 21 -3 12 -12z m-514 -16 c2 -7 -3 -12 -12 -12 -9 0 -16 7 -16 16 0 17 22
14 28 -4z m1602 14 c0 -3 -4 -8 -10 -11 -5 -3 -10 -1 -10 4 0 6 5 11 10 11 6
0 10 -2 10 -4z m1895 -5 c8 -14 -13 -24 -33 -16 -14 5 -14 7 -2 15 19 12 27
12 35 1z m-2795 -27 c0 -8 -7 -14 -15 -14 -17 0 -18 2 -9 24 7 18 24 12 24
-10z m490 16 c0 -5 -2 -10 -4 -10 -3 0 -8 5 -11 10 -3 6 -1 10 4 10 6 0 11 -4
11 -10z m1718 -2 c9 -9 12 -9 12 1 0 7 9 11 23 9 17 -2 23 -10 25 -40 3 -35
25 -57 37 -38 4 6 15 10 26 10 27 0 16 -16 -25 -35 -35 -17 -43 -45 -16 -56 8
-4 35 -5 60 -2 37 4 48 1 64 -16 15 -17 17 -24 8 -33 -9 -9 -19 -8 -42 5 -40
24 -53 14 -45 -34 4 -24 3 -39 -3 -39 -6 0 -17 -3 -26 -6 -10 -4 -16 -1 -16 7
0 8 -11 21 -23 30 -27 20 -67 9 -67 -18 0 -24 -50 -48 -62 -30 -15 23 -9 47
12 47 24 0 45 63 30 91 -6 10 -10 30 -10 46 0 16 -9 36 -20 46 -24 20 -28 62
-5 54 8 -4 17 -2 20 3 8 14 29 12 43 -2z m-3043 -8 c3 -5 -1 -10 -9 -10 -9 0
-16 5 -16 10 0 6 4 10 9 10 6 0 13 -4 16 -10z m1701 -21 c-4 -37 -17 -52 -39
-43 -25 9 -21 47 6 60 34 18 37 16 33 -17z m788 23 c10 -16 -11 -34 -33 -27
-18 5 -20 9 -10 21 13 15 35 19 43 6z m-693 -15 c-1 -12 -15 -9 -19 4 -3 6 1
10 8 8 6 -3 11 -8 11 -12z m809 3 c0 -12 -28 -25 -36 -17 -9 9 6 27 22 27 8 0
14 -5 14 -10z m768 -2 c-6 -18 -28 -21 -28 -4 0 9 7 16 16 16 9 0 14 -5 12
-12z m102 -14 c12 -12 12 -14 -6 -14 -12 0 -29 10 -40 21 -19 22 -19 22 6 14
14 -4 32 -13 40 -21z m-2860 12 c0 -3 -4 -8 -10 -11 -5 -3 -10 -1 -10 4 0 6 5
11 10 11 6 0 10 -2 10 -4z m2110 -32 c0 -8 -4 -14 -10 -14 -5 0 -10 9 -10 21
0 11 5 17 10 14 6 -3 10 -13 10 -21z m-2110 -15 c0 -6 -4 -7 -10 -4 -5 3 -10
11 -10 16 0 6 5 7 10 4 6 -3 10 -11 10 -16z m473 5 c-3 -9 0 -20 8 -25 11 -6
8 -9 -8 -9 -22 0 -32 27 -16 43 12 13 22 7 16 -9z m-3246 0 c-3 -3 -12 -4 -19
-1 -8 3 -5 6 6 6 11 1 17 -2 13 -5z m2470 -17 c3 -6 1 -7 -5 -3 -7 4 -12 2
-12 -4 0 -7 -6 -5 -15 4 -8 8 -15 17 -15 19 0 9 40 -5 47 -16z m3043 -17 c0
-16 7 -20 35 -20 32 0 35 -2 25 -19 -15 -29 -12 -41 9 -41 18 0 38 -17 30 -24
-2 -2 -23 -6 -47 -9 -38 -5 -46 -2 -77 28 -37 34 -42 53 -25 86 14 26 50 25
50 -1z m325 10 c3 -5 1 -10 -4 -10 -6 0 -11 5 -11 10 0 6 2 10 4 10 3 0 8 -4
11 -10z m-5835 -22 c0 -13 -23 -5 -28 10 -2 7 2 10 12 6 9 -3 16 -11 16 -16z
m1610 12 c0 -5 -5 -10 -11 -10 -5 0 -7 5 -4 10 3 6 8 10 11 10 2 0 4 -4 4 -10z
m2729 -11 c7 -21 75 -59 103 -59 10 0 18 -4 18 -10 0 -5 11 -10 25 -10 30 0
33 -16 5 -23 -13 -3 -20 -14 -21 -29 l0 -23 -11 23 c-13 26 -24 28 -32 6 -5
-14 -9 -14 -22 -3 -14 12 -14 14 2 26 16 11 15 13 -10 23 -36 13 -49 13 -72
-4 -20 -15 -58 -12 -82 7 -18 14 -8 66 16 83 25 19 72 14 81 -7z m649 12 c17
-11 -10 -34 -34 -29 -36 7 -27 28 16 37 3 0 11 -3 18 -8z m1402 -41 c17 -19
120 -46 144 -37 13 5 16 -2 16 -37 0 -38 -4 -45 -33 -61 -37 -20 -73 -17 -69
6 1 9 -7 24 -18 34 -11 10 -20 24 -20 31 0 7 -10 20 -22 28 -19 14 -25 14 -44
1 -12 -8 -24 -11 -28 -8 -8 8 -8 78 1 86 7 8 51 -17 73 -43z m-2974 2 c-10
-10 -29 15 -21 28 6 9 10 8 17 -4 6 -10 7 -20 4 -24z m-246 2 c0 -8 -4 -12
-10 -9 -5 3 -10 13 -10 21 0 8 5 12 10 9 6 -3 10 -13 10 -21z m1524 -13 c14
-25 17 -38 9 -50 -6 -9 -14 -31 -18 -49 -5 -25 -3 -32 8 -32 19 0 77 -32 77
-42 0 -14 -37 -8 -51 8 -12 14 -14 14 -20 -3 -5 -12 0 -23 14 -34 22 -18 18
-49 -8 -49 -8 0 -14 3 -13 8 7 34 -57 95 -74 69 -6 -11 -68 -21 -68 -11 0 3 7
12 15 20 15 15 20 46 16 92 -1 17 3 22 24 22 32 0 32 12 0 36 l-25 19 33 16
c44 23 58 20 81 -20z m146 19 c26 -26 25 -28 -7 -22 -25 5 -27 4 -14 -12 20
-24 9 -28 -28 -10 -28 14 -30 18 -19 32 29 37 41 39 68 12z m-2498 -2 c-9 -9
-15 -9 -24 0 -9 9 -7 12 12 12 19 0 21 -3 12 -12z m253 -6 c-3 -3 -11 0 -18 7
-9 10 -8 11 6 5 10 -3 15 -9 12 -12z m1145 7 c0 -8 4 -8 13 -1 10 9 19 8 35
-3 11 -9 27 -14 33 -13 7 2 15 -6 17 -17 6 -30 22 -43 22 -17 0 12 4 22 8 22
20 0 20 -14 1 -40 -18 -24 -25 -27 -55 -20 -19 4 -34 6 -34 3 0 -2 -5 -1 -12
3 -7 5 -5 11 8 21 16 12 17 15 4 23 -8 5 -23 10 -32 10 -10 0 -18 5 -18 11 0
6 -9 9 -20 6 -11 -3 -22 -1 -25 3 -5 7 4 11 48 19 4 0 7 -4 7 -10z m125 0 c12
-19 -3 -22 -27 -5 l-22 16 21 0 c12 0 25 -5 28 -11z m-545 -15 c0 -8 -5 -12
-10 -9 -6 4 -8 11 -5 16 9 14 15 11 15 -7z m-2180 -4 c0 -5 -2 -10 -4 -10 -3
0 -8 5 -11 10 -3 6 -1 10 4 10 6 0 11 -4 11 -10z m3976 -1 c3 -6 -3 -21 -15
-32 -20 -20 -22 -20 -38 -5 -13 14 -14 20 -3 32 15 18 46 21 56 5z m-906 -24
c0 -8 -4 -15 -10 -15 -5 0 -10 7 -10 15 0 8 5 15 10 15 6 0 10 -7 10 -15z
m-2506 -16 c-3 -5 -10 -7 -15 -3 -5 3 -7 10 -3 15 3 5 10 7 15 3 5 -3 7 -10 3
-15z m4168 -14 c2 -11 15 -26 30 -33 24 -11 26 -16 18 -44 -5 -17 -12 -33 -15
-37 -10 -9 -23 20 -18 39 5 18 -30 63 -41 53 -3 -4 -6 5 -6 19 0 44 24 47 32
3z m-3422 15 c0 -5 -4 -10 -10 -10 -5 0 -10 5 -10 10 0 6 5 10 10 10 6 0 10
-4 10 -10z m1480 -35 c0 -23 -24 -40 -42 -29 -6 4 -5 10 3 15 8 5 15 14 15 21
3 27 4 29 14 23 6 -3 10 -17 10 -30z m218 14 c12 -19 11 -20 -10 -17 -12 2
-24 11 -26 21 -5 24 20 21 36 -4z m-398 -9 c0 -11 -5 -20 -11 -20 -6 0 -9 -9
-6 -20 6 -23 -27 -38 -47 -20 -11 8 -12 17 -3 40 10 25 19 31 60 39 4 0 7 -8
7 -19z m480 0 c0 -5 -5 -10 -11 -10 -5 0 -7 5 -4 10 3 6 8 10 11 10 2 0 4 -4
4 -10z m140 0 c13 -8 13 -10 -2 -10 -9 0 -20 5 -23 10 -8 13 5 13 25 0z
m-2800 -20 c0 -5 -4 -10 -10 -10 -5 0 -10 5 -10 10 0 6 5 10 10 10 6 0 10 -4
10 -10z m3980 -52 c0 -5 5 -8 11 -8 6 0 17 -7 25 -15 13 -12 105 -23 147 -16
4 0 7 -6 7 -14 0 -9 9 -15 22 -15 20 0 21 -1 3 -20 -19 -21 -79 -28 -90 -10
-4 6 -10 8 -15 5 -4 -3 -6 4 -3 15 7 25 -1 25 -25 0 -19 -20 -19 -20 -36 -1
-15 16 -27 19 -65 14 -36 -4 -50 -1 -60 11 -7 9 -20 16 -27 16 -8 0 -14 6 -14
14 0 30 13 46 37 46 17 0 27 7 30 21 6 20 7 20 29 -8 13 -15 23 -31 24 -35z
m250 40 c0 -6 -10 -22 -22 -35 l-21 -23 31 -6 c35 -7 41 -18 16 -28 -26 -10
-54 -7 -55 7 0 6 -3 25 -5 42 -4 20 0 33 12 42 22 16 44 17 44 1z m-3800 -8
c0 -5 -4 -10 -10 -10 -5 0 -10 5 -10 10 0 6 5 10 10 10 6 0 10 -4 10 -10z
m100 6 c0 -3 -4 -8 -10 -11 -5 -3 -10 -1 -10 4 0 6 5 11 10 11 6 0 10 -2 10
-4z m1210 -6 c0 -5 -4 -10 -10 -10 -5 0 -10 5 -10 10 0 6 5 10 10 10 6 0 10
-4 10 -10z m1230 -10 c0 -5 -7 -10 -15 -10 -8 0 -15 5 -15 10 0 6 7 10 15 10
8 0 15 -4 15 -10z m-1900 -13 c0 -7 -9 -13 -20 -14 -11 -1 -20 3 -20 8 0 6 5
7 10 4 6 -3 10 -1 10 4 0 6 5 11 10 11 6 0 10 -6 10 -13z m630 -2 c0 -8 -4
-15 -10 -15 -5 0 -10 7 -10 15 0 8 5 15 10 15 6 0 10 -7 10 -15z m993 0 c-3
-9 -8 -14 -10 -11 -3 3 -2 9 2 15 9 16 15 13 8 -4z m65 -3 c3 -9 -2 -13 -14
-10 -9 1 -19 9 -22 16 -3 9 2 13 14 10 9 -1 19 -9 22 -16z m-4118 -2 c0 -5 -4
-10 -10 -10 -5 0 -10 5 -10 10 0 6 5 10 10 10 6 0 10 -4 10 -10z m3160 5 c0
-2 -9 -9 -20 -15 -16 -9 -18 -8 -14 5 5 13 34 22 34 10z m-1265 -15 c3 -5 1
-10 -4 -10 -6 0 -11 5 -11 10 0 6 2 10 4 10 3 0 8 -4 11 -10z m50 -20 c-3 -5
-10 -10 -16 -10 -5 0 -9 5 -9 10 0 6 7 10 16 10 8 0 12 -4 9 -10z m2813 -8 c2
-7 -2 -10 -12 -6 -9 3 -16 11 -16 16 0 13 23 5 28 -10z m-1131 -22 c-3 -11 -1
-23 4 -26 17 -10 -12 -35 -34 -28 -11 3 -23 1 -27 -6 -4 -7 -14 -10 -23 -8
-13 2 -13 7 4 27 17 21 22 22 30 10 8 -12 10 -12 19 1 6 10 5 17 -6 23 -19 11
-8 27 18 27 15 0 19 -5 15 -20z m-3557 0 c0 -5 -2 -10 -4 -10 -3 0 -8 5 -11
10 -3 6 -1 10 4 10 6 0 11 -4 11 -10z m2305 -1 c11 -17 0 -20 -21 -4 -17 13
-17 14 -2 15 9 0 20 -5 23 -11z m1855 -4 c0 -8 7 -15 15 -15 8 0 15 5 15 10 0
6 7 10 17 10 15 0 15 -1 0 -18 -10 -10 -17 -28 -17 -40 0 -13 -6 -22 -15 -22
-11 0 -14 -9 -11 -35 5 -40 5 -40 -51 -50 -35 -5 -43 -4 -43 9 0 22 17 28 39
14 27 -16 35 -5 32 40 -3 47 -4 84 -2 100 2 17 21 15 21 -3z m980 -4 c0 -10
-9 -21 -20 -24 -19 -5 -19 -4 -2 19 21 29 22 29 22 5z m-1175 -9 c-3 -3 -11 0
-18 7 -9 10 -8 11 6 5 10 -3 15 -9 12 -12z m420 8 c-3 -5 -11 -10 -16 -10 -6
0 -7 5 -4 10 3 6 11 10 16 10 6 0 7 -4 4 -10z m-508 -16 c3 -8 1 -20 -5 -26
-6 -6 1 -21 24 -43 19 -19 34 -37 34 -39 0 -3 -17 -3 -37 -1 -21 2 -43 4 -49
4 -7 1 -10 14 -8 32 3 24 0 32 -16 36 -25 7 -22 36 5 45 33 10 45 9 52 -8z
m796 9 c3 -5 8 -22 12 -40 6 -32 6 -32 -30 -30 -23 2 -41 9 -46 20 -17 29 0
40 29 21 23 -15 25 -15 14 -1 -8 9 -11 21 -7 27 7 12 22 13 28 3z m-4983 -13
c0 -5 -5 -10 -11 -10 -5 0 -7 5 -4 10 3 6 8 10 11 10 2 0 4 -4 4 -10z m1540
-11 c0 -6 -4 -7 -10 -4 -5 3 -10 11 -10 16 0 6 5 7 10 4 6 -3 10 -11 10 -16z
m3045 11 c3 -5 17 -10 30 -10 13 0 27 -5 30 -10 3 -6 16 -8 29 -4 22 5 23 3
22 -53 -1 -49 -5 -62 -29 -87 -20 -21 -31 -26 -38 -19 -8 8 -3 16 20 27 17 9
31 21 31 26 0 16 -22 23 -31 9 -8 -13 -13 -6 -10 14 3 20 -18 4 -23 -18 -8
-31 -36 -66 -48 -59 -4 3 -8 0 -8 -7 0 -9 -4 -9 -15 1 -8 6 -19 9 -26 5 -18
-12 -28 15 -16 48 10 29 11 30 18 9 11 -29 23 -28 37 3 10 22 9 25 -9 25 -16
0 -19 4 -13 18 4 9 9 34 12 55 4 35 23 50 37 27z m-3002 -15 c-3 -9 -8 -14
-10 -11 -3 3 -2 9 2 15 9 16 15 13 8 -4z m2352 6 c3 -5 2 -12 -3 -15 -5 -3 -9
1 -9 9 0 17 3 19 12 6z m895 -12 c0 -5 -11 -9 -25 -9 -28 0 -34 16 -7 23 20 4
32 -1 32 -14z m390 0 c0 -6 -4 -7 -10 -4 -5 3 -10 11 -10 16 0 6 5 7 10 4 6
-3 10 -11 10 -16z m-795 1 c3 -5 -3 -10 -14 -10 -12 0 -21 5 -21 10 0 6 6 10
14 10 8 0 18 -4 21 -10z m-1605 -10 c-20 -13 -33 -13 -25 0 3 6 14 10 23 10
15 0 15 -2 2 -10z m1191 -6 c12 -14 11 -16 -5 -13 -11 2 -21 10 -24 17 -5 17
13 15 29 -4z m49 1 c0 -8 -4 -15 -10 -15 -5 0 -10 7 -10 15 0 8 5 15 10 15 6
0 10 -7 10 -15z m1636 -25 c37 0 44 -3 44 -19 0 -11 -9 -22 -19 -26 -16 -5
-17 -9 -7 -30 8 -18 16 -23 31 -19 35 11 38 10 56 -26 21 -40 25 -126 7 -132
-6 -2 -38 -1 -70 4 -64 8 -101 36 -103 75 -1 24 10 32 17 11 3 -8 14 -6 36 7
36 22 38 27 17 45 -8 7 -15 23 -15 35 0 18 -7 24 -35 29 -19 4 -35 11 -35 16
0 6 -12 10 -26 10 -21 0 -25 4 -22 23 2 13 10 22 20 22 9 0 20 4 25 8 4 5 14
-1 22 -12 10 -16 24 -21 57 -21z m803 9 c16 -38 11 -43 -34 -35 -30 6 -35 11
-35 34 0 22 5 27 28 29 22 1 30 -4 41 -28z m-5372 6 c0 -8 -4 -12 -9 -9 -5 3
-6 10 -3 15 9 13 12 11 12 -6z m436 -2 c-7 -2 -13 -11 -13 -19 0 -8 -8 -14
-17 -14 -15 0 -16 2 -3 10 8 5 11 10 5 10 -5 0 -3 5 5 10 8 5 20 9 25 9 6 0 4
-3 -2 -6z m67 -3 c12 -8 9 -10 -13 -10 -16 0 -26 4 -22 10 8 12 16 12 35 0z
m2284 1 c3 -5 -3 -11 -14 -14 -20 -5 -35 5 -23 17 9 9 31 7 37 -3z m1011 -40
c22 -5 32 -9 23 -10 -24 -1 -23 -28 2 -36 28 -9 44 3 29 21 -7 9 -8 14 -1 14
6 0 18 7 26 16 13 12 16 12 16 2 0 -53 -71 -106 -115 -86 -13 6 -22 15 -19 19
3 5 -4 9 -15 9 -17 0 -20 -5 -14 -30 5 -28 4 -30 -23 -25 -16 2 -45 7 -66 10
l-36 6 15 30 c11 22 18 28 26 20 14 -14 64 -14 72 -1 3 6 18 10 33 10 l27 1
-26 14 c-28 15 -43 40 -33 56 3 5 13 0 22 -11 9 -11 35 -24 57 -29z m1825 23
c14 -35 -3 -58 -31 -43 -18 9 -26 49 -12 62 14 15 34 6 43 -19z m-5571 -13
c-15 -5 -22 6 -14 19 6 9 10 9 16 -1 5 -8 4 -15 -2 -18z m1101 4 c11 -13 10
-14 -4 -9 -9 3 -16 10 -16 15 0 13 6 11 20 -6z m-420 -4 c0 -5 3 -18 7 -28 6
-17 5 -17 -15 1 -12 10 -19 23 -16 27 7 12 24 11 24 0z m830 -1 c0 -5 -4 -10
-10 -10 -5 0 -10 5 -10 10 0 6 5 10 10 10 6 0 10 -4 10 -10z m1000 0 c0 -5 -2
-10 -4 -10 -3 0 -8 5 -11 10 -3 6 -1 10 4 10 6 0 11 -4 11 -10z m1405 0 c3 -5
1 -10 -4 -10 -6 0 -11 5 -11 10 0 6 2 10 4 10 3 0 8 -4 11 -10z m1199 -11 c-3
-5 -10 -7 -15 -3 -5 3 -7 10 -3 15 3 5 10 7 15 3 5 -3 7 -10 3 -15z m-2336
-30 c2 -27 -3 -44 -22 -65 -21 -25 -25 -27 -31 -12 -4 11 1 32 14 53 18 30 18
37 6 41 -19 8 -8 26 13 22 11 -2 18 -15 20 -39z m82 26 c0 -10 -9 -14 -25 -13
-25 2 -31 9 -18 21 12 13 43 7 43 -8z m-2476 -16 c-2 -4 2 -10 8 -12 7 -3 8
-6 2 -6 -5 -1 -18 5 -28 12 -16 12 -16 13 3 13 11 0 18 -3 15 -7z m276 -11 c0
-13 -32 -6 -37 9 -3 7 3 9 16 6 12 -3 21 -10 21 -15z m2258 0 c-6 -18 -28 -21
-28 -4 0 9 7 16 16 16 9 0 14 -5 12 -12z m195 -28 c3 -12 0 -20 -8 -20 -15 0
-28 27 -19 41 8 13 21 3 27 -21z m-1745 7 c6 0 12 -4 12 -9 0 -9 -31 -11 -54
-2 -25 10 -19 26 7 18 12 -4 28 -7 35 -7z m572 3 c0 -5 -4 -10 -10 -10 -5 0
-10 5 -10 10 0 6 5 10 10 10 6 0 10 -4 10 -10z m347 -12 c-3 -8 -6 -5 -6 6 -1
11 2 17 5 13 3 -3 4 -12 1 -19z m1867 7 c-6 -16 -24 -21 -24 -7 0 11 11 22 21
22 5 0 6 -7 3 -15z m1336 -31 c0 -24 -4 -34 -16 -34 -8 0 -13 4 -10 9 3 5 -5
12 -19 15 -36 9 -34 44 3 48 38 5 42 1 42 -38z m-2910 26 c0 -5 -4 -10 -10
-10 -5 0 -10 5 -10 10 0 6 5 10 10 10 6 0 10 -4 10 -10z m411 0 c5 0 3 -11 -3
-25 -12 -27 -28 -33 -28 -11 0 8 -3 22 -7 32 -5 14 -3 16 11 11 10 -4 22 -7
27 -7z m155 -46 c-11 -37 -15 -43 -16 -24 -3 40 1 64 13 72 18 11 19 3 3 -48z
m766 24 c-5 -21 -6 -21 -12 -2 -8 21 -3 37 10 29 4 -3 6 -15 2 -27z m1267 10
c9 -25 6 -38 -10 -38 -11 0 -29 41 -22 53 8 14 24 7 32 -15z m-4471 -23 c-3
-3 -9 2 -12 12 -6 14 -5 15 5 6 7 -7 10 -15 7 -18z m1547 15 c3 -5 1 -10 -4
-10 -6 0 -11 5 -11 10 0 6 2 10 4 10 3 0 8 -4 11 -10z m2037 -7 c38 -34 6 -59
-43 -32 -20 10 -20 11 -3 30 21 23 23 23 46 2z m-4672 -17 c0 -2 -6 -6 -14 -9
-8 -3 -16 2 -19 14 -4 16 -2 17 14 8 10 -5 19 -11 19 -13z m4250 14 c0 -5 -7
-10 -15 -10 -8 0 -15 5 -15 10 0 6 7 10 15 10 8 0 15 -4 15 -10z m600 -1 c0
-5 -9 -9 -20 -9 -11 0 -20 4 -20 8 0 4 9 8 20 9 11 1 20 -2 20 -8z m-2445 -9
c-3 -5 -11 -10 -16 -10 -6 0 -7 5 -4 10 3 6 11 10 16 10 6 0 7 -4 4 -10z
m1285 -5 c0 -8 -4 -15 -9 -15 -13 0 -22 16 -14 24 11 11 23 6 23 -9z m2050 0
c33 30 55 -11 29 -53 -20 -32 -122 -9 -134 30 -11 32 3 38 46 22 37 -15 41
-15 59 1z m-4090 -5 c0 -5 -5 -10 -11 -10 -5 0 -7 5 -4 10 3 6 8 10 11 10 2 0
4 -4 4 -10z m-1950 -4 c0 -2 -7 -6 -15 -10 -8 -3 -15 -1 -15 4 0 6 7 10 15 10
8 0 15 -2 15 -4z m2920 -6 c0 -5 -2 -10 -4 -10 -3 0 -8 5 -11 10 -3 6 -1 10 4
10 6 0 11 -4 11 -10z m30 -10 c0 -5 -4 -10 -10 -10 -5 0 -10 5 -10 10 0 6 5
10 10 10 6 0 10 -4 10 -10z m2681 -10 c18 0 95 -83 81 -88 -7 -2 -22 8 -33 22
-12 15 -36 33 -55 41 -33 14 -50 43 -18 31 9 -3 20 -6 25 -6z m-1923 -7 c-29
-64 -50 -103 -55 -103 -12 0 -32 35 -33 57 0 16 -5 20 -20 16 -11 -3 -20 -1
-20 5 0 15 32 24 44 12 5 -5 19 -10 31 -10 15 0 17 2 6 9 -14 9 -8 11 42 20 5
0 7 -2 5 -6z m335 0 c-7 -2 -19 -2 -25 0 -7 3 -2 5 12 5 14 0 19 -2 13 -5z
m437 3 c0 -11 -19 -15 -25 -6 -3 5 1 10 9 10 9 0 16 -2 16 -4z m570 -21 c0 -7
-6 -15 -12 -18 -17 -6 -6 -17 22 -22 12 -2 29 2 37 10 18 19 36 9 28 -14 -4
-13 5 -27 31 -46 33 -25 35 -30 20 -40 -9 -7 -16 -17 -16 -24 0 -11 -13 -15
-38 -12 -11 2 -12 -7 -7 -41 4 -24 11 -48 16 -54 5 -6 6 -14 2 -17 -13 -14
-41 -6 -56 16 -15 21 -16 21 -29 4 -12 -17 -15 -17 -27 -4 -9 11 -23 14 -49
10 l-37 -6 21 20 c20 20 50 80 43 87 -2 2 -14 7 -26 10 -20 6 -23 4 -23 -18 0
-29 -31 -66 -55 -66 -8 0 -15 7 -15 15 0 17 0 17 -57 6 -32 -6 -46 -5 -54 5
-6 8 -20 14 -31 14 -10 0 -17 4 -13 9 3 5 1 12 -5 16 -8 5 -13 -3 -12 -25 0
-3 3 -20 7 -37 4 -21 3 -33 -4 -33 -6 0 -11 11 -11 24 0 14 -4 28 -10 31 -5 3
-10 22 -10 42 0 35 0 35 -17 14 -15 -18 -24 -20 -51 -15 -36 7 -51 29 -34 46
8 8 13 7 17 -4 5 -13 12 -14 35 -5 22 8 26 14 18 26 -7 12 -5 27 5 51 9 20 16
28 16 18 1 -10 6 -18 12 -18 6 0 9 -6 6 -13 -6 -16 28 -59 45 -56 32 4 38 -1
32 -26 -5 -19 -2 -25 11 -25 13 0 16 6 11 25 -5 20 -3 25 13 25 11 0 23 5 26
10 9 14 21 12 39 -6 12 -11 16 -12 16 -2 0 7 32 28 70 47 69 33 87 51 52 51
-34 0 -34 14 0 26 36 12 48 10 48 -11z m-4523 9 c-3 -3 -12 -4 -19 -1 -8 3 -5
6 6 6 11 1 17 -2 13 -5z m1347 -10 c3 -8 2 -12 -4 -9 -6 3 -10 10 -10 16 0 14
7 11 14 -7z m2432 -14 c11 0 28 -10 38 -22 15 -17 16 -25 7 -40 -6 -10 -11
-27 -11 -38 0 -12 -4 -18 -11 -15 -6 4 -7 19 -4 35 4 16 2 31 -5 35 -6 3 -9 3
-8 -2 5 -18 -23 -52 -37 -46 -25 9 -36 40 -29 83 6 37 8 39 24 25 9 -8 25 -15
36 -15z m221 24 c-3 -3 -12 -4 -19 -1 -8 3 -5 6 6 6 11 1 17 -2 13 -5z m-727
-14 c-8 -5 -19 -10 -25 -10 -5 0 -3 5 5 10 8 5 20 10 25 10 6 0 3 -5 -5 -10z
m1745 -21 c19 -17 35 -36 35 -42 0 -6 12 -22 28 -34 23 -20 25 -25 12 -35 -18
-15 -15 -63 6 -92 22 -32 18 -56 -11 -56 -22 0 -25 4 -25 34 0 25 -5 36 -19
41 -10 3 -29 14 -41 25 -13 11 -34 20 -47 20 -18 0 -23 5 -23 24 0 14 4 27 9
30 4 3 11 27 15 54 6 43 12 62 22 62 2 0 19 -14 39 -31z m-5231 6 c-4 -8 -11
-12 -16 -9 -6 4 -5 10 3 15 19 12 19 11 13 -6z m3196 5 c0 -5 -2 -10 -4 -10
-3 0 -8 5 -11 10 -3 6 -1 10 4 10 6 0 11 -4 11 -10z m915 -10 c7 -11 -35 -31
-47 -23 -5 2 -8 11 -8 19 0 16 45 20 55 4z m395 -17 c15 -19 18 -29 10 -37 -8
-8 -17 -4 -30 14 -21 27 -26 50 -11 50 5 0 19 -12 31 -27z m-4540 7 c8 -5 11
-10 5 -10 -5 0 -17 5 -25 10 -8 5 -10 10 -5 10 6 0 17 -5 25 -10z m1779 -16
c2 -2 -8 -4 -22 -4 -18 0 -27 5 -27 15 0 13 4 14 23 4 12 -6 24 -13 26 -15z
m1721 16 c0 -5 -5 -10 -11 -10 -5 0 -7 5 -4 10 3 6 8 10 11 10 2 0 4 -4 4 -10z
m168 -17 c8 -18 9 -30 2 -37 -7 -7 -10 -4 -10 7 0 10 -6 20 -14 23 -22 9 -28
34 -8 34 9 0 23 -12 30 -27z m-2074 -15 c7 -5 4 -8 -6 -8 -12 0 -18 7 -17 23
0 15 2 17 6 7 3 -8 11 -18 17 -22z m-2459 13 c3 -5 1 -12 -5 -16 -5 -3 -10 1
-10 9 0 18 6 21 15 7z m1195 -17 c0 -20 -7 -17 -20 6 -9 16 -8 18 5 14 8 -4
15 -12 15 -20z m1310 4 c0 -13 -23 -5 -28 10 -2 7 2 10 12 6 9 -3 16 -11 16
-16z m1580 12 c0 -5 -2 -10 -4 -10 -3 0 -8 5 -11 10 -3 6 -1 10 4 10 6 0 11
-4 11 -10z m84 -5 c4 -10 -1 -15 -16 -15 -17 0 -18 2 -8 15 7 8 14 15 15 15 2
0 5 -7 9 -15z m-3254 -5 c-8 -5 -19 -10 -25 -10 -5 0 -3 5 5 10 8 5 20 10 25
10 6 0 3 -5 -5 -10z m1650 0 c0 -5 -10 -10 -22 -9 -22 0 -22 1 -3 9 11 5 21 9
23 9 1 1 2 -3 2 -9z m1460 0 c0 -5 -2 -10 -4 -10 -3 0 -8 5 -11 10 -3 6 -1 10
4 10 6 0 11 -4 11 -10z m571 -18 c-6 -2 -11 -12 -11 -22 0 -10 -6 -20 -13 -23
-11 -4 -12 2 -3 34 8 31 12 36 24 26 9 -7 10 -13 3 -15z m86 -7 c1 -19 -5 -40
-13 -46 -18 -14 -20 -12 -28 27 -6 25 -3 32 16 42 13 6 23 11 24 11 0 1 0 -15
1 -34z m-3928 4 c-10 -6 -11 -9 -1 -9 6 0 12 -5 12 -11 0 -8 -4 -8 -14 1 -16
13 -10 44 6 34 6 -4 5 -10 -3 -15z m2151 11 c0 -5 -4 -10 -9 -10 -6 0 -13 5
-16 10 -3 6 1 10 9 10 9 0 16 -4 16 -10z m-270 -32 c0 -12 -29 -9 -53 4 -22
12 -21 12 8 18 27 5 44 -3 45 -22z m80 10 c0 -6 -6 -6 -14 1 -10 8 -16 9 -21
1 -3 -5 -13 -10 -21 -10 -8 0 -12 5 -9 10 4 6 10 8 15 5 5 -3 11 -1 15 4 7 12
35 3 35 -11z m135 12 c-3 -5 -15 -10 -26 -10 -10 0 -19 5 -19 10 0 6 12 10 26
10 14 0 23 -4 19 -10z m-412 -21 c6 -23 -6 -25 -27 -3 -20 19 -20 19 3 21 11
1 21 -6 24 -18z m1774 -7 c2 -14 -2 -22 -11 -22 -19 0 -28 14 -20 35 9 21 26
14 31 -13z m-2487 8 c0 -5 -4 -10 -10 -10 -5 0 -10 5 -10 10 0 6 5 10 10 10 6
0 10 -4 10 -10z m244 -11 c-6 -11 -24 -2 -24 11 0 5 7 7 15 4 8 -4 12 -10 9
-15z m3113 5 c3 -9 1 -25 -5 -34 -9 -15 -7 -19 12 -24 28 -7 43 -51 25 -72
-16 -19 -22 -18 -52 10 -23 21 -30 23 -52 13 -13 -7 -25 -17 -25 -24 0 -19
-20 -26 -35 -13 -19 16 -19 30 0 30 8 0 15 7 15 15 0 8 -7 15 -16 15 -8 0 -12
-4 -9 -10 3 -5 -1 -10 -9 -10 -9 0 -16 5 -16 10 0 23 -29 8 -33 -17 -12 -66 0
-93 42 -93 22 -1 24 -2 9 -11 -12 -7 -24 -6 -37 1 -39 20 -56 4 -27 -26 8 -7
16 -19 19 -26 3 -9 9 -7 21 7 12 16 16 17 17 5 1 -8 1 -19 0 -24 -1 -5 8 -2
21 6 13 8 24 24 26 36 2 11 13 23 25 26 17 4 19 8 9 18 -17 17 -15 38 3 38 9
0 15 -9 15 -24 0 -34 23 -49 64 -42 18 4 41 4 50 0 14 -5 13 -9 -9 -20 -34
-18 -77 -13 -97 11 -10 12 -17 15 -18 8 0 -7 5 -13 10 -13 6 0 10 -4 10 -10 0
-5 -6 -7 -14 -4 -16 6 -56 -24 -56 -44 0 -10 5 -10 21 -2 24 13 60 -7 38 -21
-12 -7 69 -25 98 -22 7 0 11 -3 8 -7 -2 -4 7 -13 21 -20 19 -11 27 -11 36 -2
7 7 22 12 35 12 18 0 23 -6 23 -24 0 -32 14 -40 35 -19 16 15 17 15 15 -3 -4
-34 -1 -39 35 -58 19 -11 35 -23 35 -28 0 -4 6 -8 14 -8 8 0 17 -8 20 -17 5
-11 10 -14 14 -6 10 15 92 28 92 14 0 -6 -11 -11 -25 -11 -36 0 -33 -30 3 -31
l27 -2 -26 -4 -26 -4 26 -30 c18 -21 34 -29 58 -29 19 0 33 -5 34 -12 0 -7 5
0 9 15 8 25 4 33 -20 57 -30 30 -26 46 9 35 11 -3 22 -1 26 5 9 14 85 50 106
50 10 0 20 -4 24 -9 3 -5 19 -12 36 -16 24 -5 29 -11 27 -28 -2 -14 -10 -22
-23 -22 -35 -1 -48 -14 -33 -33 10 -12 10 -16 1 -19 -7 -3 -13 -11 -13 -18 0
-26 -20 -26 -31 -1 -15 32 -55 60 -64 45 -4 -6 2 -13 12 -15 12 -4 20 -15 21
-35 1 -16 -1 -29 -6 -29 -5 0 -18 -9 -30 -20 -12 -12 -22 -16 -22 -10 0 16
-20 12 -26 -5 -6 -14 31 -79 63 -112 9 -10 13 -10 17 0 3 6 3 2 0 -10 -3 -12
2 -36 11 -54 38 -73 88 -231 102 -324 17 -113 12 -303 -10 -395 -14 -59 -12
-94 4 -69 6 10 9 11 9 2 0 -7 9 -13 20 -13 14 0 20 7 20 22 l0 22 16 -22 c21
-31 11 -92 -17 -99 -10 -3 -19 -9 -19 -14 0 -5 -5 -9 -11 -9 -6 0 -8 8 -4 19
3 11 1 22 -5 26 -5 3 -10 1 -10 -6 0 -7 -6 -4 -14 6 -13 18 -15 15 -37 -35
-31 -73 -75 -156 -110 -207 -16 -23 -29 -49 -29 -57 0 -9 -12 -23 -27 -33 -16
-9 -57 -45 -93 -78 -115 -110 -240 -178 -406 -221 -139 -37 -307 -37 -446 -1
-409 107 -713 484 -747 928 -4 56 -7 118 -5 138 11 122 17 164 35 231 40 149
78 234 157 345 54 76 146 175 202 217 19 14 46 35 59 47 13 11 28 18 32 15 5
-3 9 -1 9 5 0 5 -22 20 -50 33 -27 13 -50 26 -50 29 0 7 56 -11 77 -24 6 -4
13 -1 16 5 3 9 9 8 19 -5 10 -13 19 -16 35 -10 12 4 23 13 24 18 8 49 40 82
34 37 -3 -29 -2 -29 25 -19 16 6 26 15 23 20 -3 5 3 6 14 3 11 -4 31 -2 44 3
13 5 18 10 12 10 -7 1 -13 6 -13 12 0 6 -7 17 -15 25 -17 18 -20 34 -4 34 5 0
7 5 4 10 -3 6 1 10 10 10 12 0 15 -6 10 -20 -5 -14 -2 -20 9 -20 9 0 16 -4 16
-10 0 -5 8 -10 18 -9 10 0 12 3 5 6 -7 2 -13 11 -13 18 0 7 -6 16 -12 18 -7 3
-3 6 10 6 12 1 22 7 22 16 0 9 -9 15 -22 15 -18 0 -20 2 -9 9 12 7 12 13 3 24
-12 14 -7 27 11 27 5 0 7 -7 3 -15 -3 -9 0 -15 8 -15 8 0 16 9 19 21 3 12 10
18 17 14 6 -4 9 -14 6 -22 -10 -24 5 -36 20 -16 19 26 17 40 -8 46 -12 4 -19
9 -16 13 10 10 63 -21 60 -35 -1 -7 2 -19 8 -26 8 -9 6 -14 -6 -19 -9 -3 -19
-4 -24 -1 -4 3 -6 -3 -3 -14 4 -15 0 -18 -21 -14 -37 7 -32 -11 10 -36 46 -27
49 -27 49 11 0 17 5 33 12 35 7 3 9 -4 6 -18 -4 -15 -3 -20 5 -15 7 4 10 2 6
-7 -5 -15 41 -41 57 -32 15 10 10 33 -8 45 -13 8 -14 13 -5 16 6 3 9 10 6 15
-3 6 -11 5 -20 -2 -27 -22 -26 -1 2 41 25 38 26 43 11 51 -28 16 -20 32 13 26
17 -4 30 -2 30 3 0 6 -4 10 -10 10 -5 0 -10 5 -10 10 0 13 80 11 97 -3 9 -6
16 -2 24 16 15 34 67 43 90 16 14 -15 18 -16 22 -5 3 8 -1 17 -9 20 -17 7 -19
33 -1 39 23 10 38 7 44 -9z m1271 5 c-2 -6 -8 -10 -13 -10 -5 0 -11 4 -13 10
-2 6 4 11 13 11 9 0 15 -5 13 -11z m-1840 -15 c-4 -20 -34 -41 -44 -31 -8 7
25 45 39 46 5 1 7 -6 5 -15z m258 -31 c-5 -12 -10 -13 -17 -6 -8 8 -7 18 2 34
12 21 14 22 17 6 2 -10 1 -25 -2 -34z m-1811 27 c3 -5 1 -10 -4 -10 -6 0 -11
5 -11 10 0 6 2 10 4 10 3 0 8 -4 11 -10z m1461 -10 c5 0 10 -6 12 -14 2 -11
-4 -16 -17 -16 -16 0 -21 6 -21 28 0 18 3 23 9 14 4 -8 12 -13 17 -12z m1400
-7 c-10 -10 -19 5 -10 18 6 11 8 11 12 0 2 -7 1 -15 -2 -18z m682 -2 c6 -16
24 -39 41 -52 37 -27 39 -39 9 -59 -36 -24 -68 -31 -61 -14 3 8 -1 22 -9 32
-17 18 -32 97 -23 113 12 18 33 8 43 -20z m-4531 3 c-3 -3 -12 -4 -19 -1 -8 3
-5 6 6 6 11 1 17 -2 13 -5z m1156 -1 c-7 -2 -19 -2 -25 0 -7 3 -2 5 12 5 14 0
19 -2 13 -5z m866 -5 c0 -7 -4 -22 -9 -33 -7 -17 -9 -15 -9 13 -1 17 4 32 9
32 6 0 10 -6 9 -12z m2311 -4 c0 -8 -5 -12 -10 -9 -6 4 -8 11 -5 16 9 14 15
11 15 -7z m-4350 -8 c0 -3 -4 -8 -10 -11 -5 -3 -10 -1 -10 4 0 6 5 11 10 11 6
0 10 -2 10 -4z m1802 -24 c-7 -2 -9 -9 -5 -15 4 -7 -1 -6 -10 2 -24 19 -21 30
5 23 12 -3 17 -7 10 -10z m318 3 c7 -8 9 -15 6 -15 -4 0 -14 7 -22 15 -9 8
-11 15 -6 15 5 0 15 -7 22 -15z m153 8 c-7 -2 -19 -2 -25 0 -7 3 -2 5 12 5 14
0 19 -2 13 -5z m321 -1 c2 -4 7 -24 11 -46 7 -35 6 -38 -12 -32 -18 6 -20 2
-19 -38 1 -29 -5 -51 -15 -61 -14 -14 -17 -12 -38 16 -23 31 -23 48 1 33 21
-13 43 -15 30 -2 -6 6 -8 16 -6 23 3 7 1 16 -5 20 -6 3 -11 17 -11 31 0 19 5
24 24 24 19 0 23 4 19 20 -5 19 11 28 21 12z m2106 -31 c0 -21 3 -53 6 -70 9
-45 -9 -38 -34 14 -12 25 -17 45 -12 45 6 0 10 11 10 25 0 16 6 25 15 25 11 0
15 -11 15 -39z m-619 -1 c8 -9 25 -21 37 -24 36 -12 24 -40 -27 -62 -19 -8
-34 -5 -72 13 -59 28 -64 36 -49 73 11 26 15 27 53 23 23 -3 49 -13 58 -23z
m-1561 -11 c0 -13 -5 -17 -17 -12 -32 11 -45 25 -32 33 19 12 49 -1 49 -21z
m-1366 6 c3 -9 0 -15 -9 -15 -8 0 -15 7 -15 15 0 8 4 15 9 15 5 0 11 -7 15
-15z m1653 9 c-3 -3 -12 -4 -19 -1 -8 3 -5 6 6 6 11 1 17 -2 13 -5z m486 -24
c3 -13 0 -20 -9 -20 -8 0 -14 2 -14 4 0 2 -3 11 -6 20 -4 10 -1 16 9 16 8 0
17 -9 20 -20z m-3223 -12 c0 -16 -3 -19 -11 -11 -6 6 -8 16 -5 22 11 17 16 13
16 -11z m17 0 c-3 -8 -6 -5 -6 6 -1 11 2 17 5 13 3 -3 4 -12 1 -19z m1666 7
c-3 -9 -8 -14 -10 -11 -3 3 -2 9 2 15 9 16 15 13 8 -4z m1490 -8 c7 -18 -3
-66 -16 -74 -6 -4 -8 5 -4 23 3 19 0 35 -10 47 -15 16 -14 17 4 17 12 0 23 -6
26 -13z m257 -8 c0 -5 -12 -14 -26 -19 -20 -8 -25 -15 -21 -32 4 -12 1 -28 -5
-35 -7 -9 -6 -19 5 -37 21 -31 9 -42 -18 -16 -12 11 -32 18 -47 17 -15 -1 -26
3 -25 8 1 6 7 9 13 9 7 -1 18 9 25 22 7 13 16 24 21 24 4 0 8 8 8 18 0 14 -2
15 -10 2 -15 -24 -33 1 -22 31 9 22 15 24 56 21 25 -2 46 -8 46 -13z m1634 -2
c8 -13 7 -21 -6 -33 -15 -15 -18 -15 -32 -1 -19 19 -21 43 -3 50 18 8 29 3 41
-16z m-6940 -2 c3 -8 1 -15 -4 -15 -6 0 -10 7 -10 15 0 8 2 15 4 15 2 0 6 -7
10 -15z m3516 4 c0 -9 -15 -13 -34 -10 -4 1 -14 -6 -22 -16 -11 -15 -13 -15
-14 -2 0 8 4 19 10 25 12 12 60 15 60 3z m691 -5 c12 -14 11 -16 -5 -13 -11 2
-21 10 -24 17 -5 17 13 15 29 -4z m-2916 -4 c-3 -5 -11 -10 -16 -10 -6 0 -7 5
-4 10 3 6 11 10 16 10 6 0 7 -4 4 -10z m135 -37 c3 -2 -8 -3 -25 -1 -25 3 -65
29 -65 42 0 4 81 -33 90 -41z m1425 38 c3 -5 1 -12 -5 -16 -5 -3 -10 1 -10 9
0 18 6 21 15 7z m502 -13 c-3 -8 -6 -5 -6 6 -1 11 2 17 5 13 3 -3 4 -12 1 -19z
m1593 -18 c6 0 10 -6 8 -12 -3 -7 -15 -13 -29 -13 -20 0 -24 5 -26 35 l-2 35
18 -22 c11 -13 24 -23 31 -23z m420 17 c17 4 21 2 18 -8 -3 -8 -11 -15 -19
-15 -20 -2 -28 -4 -35 -6 -4 -2 -8 11 -10 27 -2 26 -1 28 10 13 8 -11 20 -15
36 -11z m-2800 -3 c0 -2 -7 -4 -15 -4 -8 0 -15 4 -15 10 0 5 7 7 15 4 8 -4 15
-8 15 -10z m534 0 c21 -21 20 -22 -9 -16 -16 3 -25 0 -25 -8 0 -10 -3 -10 -15
0 -20 16 -19 27 3 33 29 8 30 8 46 -9z m-3144 -9 c33 -17 40 -35 13 -35 -18 0
-53 28 -53 42 0 11 7 10 40 -7z m1040 0 c0 -12 -19 -12 -23 0 -4 9 -1 12 9 8
7 -3 14 -7 14 -8z m50 -1 c0 -2 -7 -4 -15 -4 -8 0 -15 4 -15 10 0 5 7 7 15 4
8 -4 15 -8 15 -10z m100 6 c0 -5 -9 -10 -20 -10 -11 0 -20 5 -20 10 0 6 9 10
20 10 11 0 20 -4 20 -10z m-1834 -51 c-4 -28 -1 -42 8 -45 14 -6 16 -51 3 -71
-5 -7 -19 -13 -32 -13 -22 0 -24 4 -21 31 2 17 9 35 17 39 8 5 12 27 11 59 0
31 3 49 9 45 5 -3 7 -23 5 -45z m814 47 c0 -3 -4 -8 -10 -11 -5 -3 -10 -1 -10
4 0 6 5 11 10 11 6 0 10 -2 10 -4z m1822 -18 c-7 -7 -12 -8 -12 -2 0 14 12 26
19 19 2 -3 -1 -11 -7 -17z m478 8 c25 -2 60 -9 78 -15 28 -8 33 -8 28 4 -3 8
-1 15 4 15 6 0 10 -7 10 -17 0 -9 3 -13 7 -10 3 4 11 3 17 -2 6 -5 29 -14 51
-21 22 -7 66 -26 98 -41 33 -16 64 -26 70 -22 5 3 7 2 4 -4 -3 -5 8 -18 26
-28 76 -44 182 -135 256 -221 19 -21 40 -39 45 -39 6 -1 10 -6 9 -13 -2 -6 14
-38 35 -70 20 -31 46 -76 56 -99 10 -24 23 -40 29 -36 6 3 7 1 3 -5 -4 -6 6
-49 22 -94 88 -249 73 -552 -39 -793 -210 -453 -706 -676 -1173 -529 -176 56
-282 120 -419 253 -223 217 -332 479 -330 791 1 201 45 364 141 525 54 91 73
115 159 204 34 35 60 68 56 74 -3 6 -1 7 5 3 12 -7 59 18 80 43 7 9 16 16 20
16 4 1 37 15 74 33 37 18 86 39 110 48 24 8 51 25 61 37 14 16 17 18 13 5 -6
-21 3 -22 36 -8 13 6 73 14 133 18 106 8 125 7 225 -2z m3895 4 c4 -6 3 -30
-1 -53 -7 -41 -7 -41 -18 -17 -6 14 -16 29 -23 33 -7 4 -13 17 -13 27 0 15 7
20 24 20 14 0 28 -5 31 -10z m-4398 -6 c-3 -3 -12 -4 -19 -1 -8 3 -5 6 6 6 11
1 17 -2 13 -5z m673 -4 c0 -5 -4 -10 -10 -10 -5 0 -10 5 -10 10 0 6 5 10 10
10 6 0 10 -4 10 -10z m590 0 c8 -5 11 -10 5 -10 -5 0 -17 5 -25 10 -8 5 -10
10 -5 10 6 0 17 -5 25 -10z m210 0 c0 8 3 11 6 7 3 -3 1 -14 -5 -24 -6 -11
-11 -13 -11 -5 0 7 -4 10 -10 7 -5 -3 -10 1 -10 11 0 13 3 14 15 4 12 -10 15
-10 15 0z m72 -12 c-7 -7 -12 -8 -12 -2 0 14 12 26 19 19 2 -3 -1 -11 -7 -17z
m355 7 c8 -9 13 -19 10 -22 -3 -3 -13 2 -22 11 -22 21 -24 20 -17 -6 l5 -21
-21 21 c-12 12 -22 24 -22 27 0 12 53 4 67 -10z m473 0 c0 -8 -7 -15 -15 -15
-16 0 -20 12 -8 23 11 12 23 8 23 -8z m868 -11 c2 -16 -4 -23 -24 -28 -34 -9
-37 -5 -23 28 15 31 43 31 47 0z m469 -12 c0 -28 -5 -42 -20 -51 -18 -12 -19
-11 -12 6 4 10 9 27 12 38 14 58 20 60 20 7z m-2378 12 c7 5 11 -2 11 -18 0
-25 -2 -26 -47 -26 -11 0 -9 44 2 52 5 4 12 2 16 -4 4 -6 12 -7 18 -4z m-3223
-22 c-4 -3 -14 2 -24 12 -16 18 -16 18 6 6 13 -6 21 -14 18 -18z m2634 18 c0
-5 -2 -10 -4 -10 -3 0 -8 5 -11 10 -3 6 -1 10 4 10 6 0 11 -4 11 -10z m2825 1
c3 -5 1 -12 -5 -16 -5 -3 -10 1 -10 9 0 18 6 21 15 7z m-3955 -16 c0 -17 -27
-32 -37 -21 -4 3 2 13 13 21 24 18 24 18 24 0z m1568 -16 c-1 -22 -3 -27 -10
-16 -4 8 -5 22 -2 31 9 24 13 19 12 -15z m2472 21 c0 -5 -4 -10 -10 -10 -5 0
-10 5 -10 10 0 6 5 10 10 10 6 0 10 -4 10 -10z m-2710 -9 c0 -6 -4 -13 -10
-16 -5 -3 -10 1 -10 9 0 9 5 16 10 16 6 0 10 -4 10 -9z m95 -1 c-3 -5 -10 -10
-16 -10 -5 0 -9 5 -9 10 0 6 7 10 16 10 8 0 12 -4 9 -10z m-189 -24 c2 -20 -1
-22 -11 -13 -7 7 -10 18 -8 24 8 21 18 15 19 -11z m2601 12 c7 18 30 15 53 -8
20 -20 20 -20 1 -37 -11 -9 -17 -22 -14 -29 3 -8 0 -14 -6 -14 -14 0 -51 36
-51 50 0 6 -8 10 -17 11 -11 0 -13 3 -5 6 6 2 12 12 12 21 0 15 2 15 11 2 8
-11 12 -12 16 -2z m667 -3 c-4 -8 -1 -22 6 -30 17 -20 -10 -31 -39 -15 -25 13
-28 30 -6 30 9 0 18 7 21 15 4 8 10 15 15 15 4 0 6 -7 3 -15z m-2974 -20 c-7
-8 -17 -15 -23 -15 -6 0 -2 8 9 19 22 21 33 19 14 -4z m3160 -7 c0 -5 -11 -8
-25 -8 -29 0 -32 8 -8 26 17 12 32 3 33 -18z m-3214 -5 c-10 -10 -19 5 -10 18
6 11 8 11 12 0 2 -7 1 -15 -2 -18z m-2172 1 c3 -8 2 -12 -4 -9 -6 3 -10 10
-10 16 0 14 7 11 14 -7z m-1189 -14 c0 -8 -10 -19 -22 -25 -13 -5 -23 -13 -23
-17 0 -5 -7 -8 -16 -8 -8 0 -13 -4 -9 -9 3 -5 1 -12 -4 -15 -12 -8 -20 56 -9
74 13 21 83 21 83 0z m1235 10 c0 -5 -2 -10 -4 -10 -3 0 -8 5 -11 10 -3 6 -1
10 4 10 6 0 11 -4 11 -10z m3455 0 c3 -5 2 -10 -4 -10 -5 0 -13 5 -16 10 -3 6
-2 10 4 10 5 0 13 -4 16 -10z m2536 -33 c-8 -8 -11 -7 -11 4 0 20 13 34 18 19
3 -7 -1 -17 -7 -23z m164 23 c-3 -5 -12 -10 -20 -10 -8 0 -17 5 -20 10 -4 6 5
10 20 10 15 0 24 -4 20 -10z m-1810 -10 c4 -6 -5 -10 -19 -10 -14 0 -26 5 -26
10 0 6 9 10 19 10 11 0 23 -4 26 -10z m973 -16 c12 7 38 -22 45 -51 6 -25 -7
-40 -18 -23 -4 6 -26 10 -48 8 -37 -3 -42 0 -45 19 -2 12 5 34 14 48 16 25 19
26 30 10 7 -9 17 -14 22 -11z m-2768 6 c0 -5 -4 -10 -10 -10 -5 0 -10 5 -10
10 0 6 5 10 10 10 6 0 10 -4 10 -10z m1648 -8 c6 -18 -15 -14 -22 4 -4 10 -1
14 6 12 6 -2 14 -10 16 -16z m426 9 c3 -5 -1 -14 -9 -21 -13 -10 -15 -9 -15 9
0 21 14 28 24 12z m-1594 -27 c0 -8 -5 -12 -10 -9 -6 4 -8 11 -5 16 9 14 15
11 15 -7z m2086 -23 c-13 -20 -26 -11 -26 16 0 25 1 26 16 11 9 -9 13 -21 10
-27z m-2946 8 c0 -6 -4 -7 -10 -4 -5 3 -10 11 -10 16 0 6 5 7 10 4 6 -3 10
-11 10 -16z m2488 3 c2 -7 -3 -12 -12 -12 -9 0 -16 7 -16 16 0 17 22 14 28 -4z
m777 -11 c-8 -28 -45 -29 -38 -2 3 11 12 22 22 24 22 5 24 2 16 -22z m-2250
13 c13 -6 14 -9 3 -16 -10 -8 -10 -11 0 -15 6 -2 10 -9 6 -14 -7 -12 -64 -12
-64 0 0 5 10 7 21 4 19 -5 21 -3 15 20 -7 29 -6 30 19 21z m1315 -14 c0 -5 -9
-10 -21 -10 -11 0 -17 5 -14 10 3 6 13 10 21 10 8 0 14 -4 14 -10z m-2357 -31
c-9 -9 -12 -7 -10 9 1 14 5 18 11 12 7 -7 6 -14 -1 -21z m2725 -9 c-11 -16
-38 -17 -38 -1 0 14 23 29 36 24 10 -4 10 -9 2 -23z m-1771 14 c-3 -3 -12 -4
-19 -1 -8 3 -5 6 6 6 11 1 17 -2 13 -5z m2019 -33 c-14 -16 -14 -19 1 -34 9
-9 13 -20 9 -24 -13 -13 -59 21 -67 51 -4 15 -5 26 -2 23 3 -4 12 0 20 8 11
12 19 12 35 4 18 -10 18 -12 4 -28z m744 17 c0 -34 -23 -88 -37 -88 -14 0 -19
90 -6 103 15 16 43 6 43 -15z m-1390 1 c0 -6 -9 -13 -20 -16 -30 -8 -18 -27
20 -33 28 -4 31 -7 18 -18 -12 -10 -22 -9 -52 3 -30 13 -36 13 -36 1 0 -7 -7
-19 -15 -26 -13 -11 -15 -9 -15 13 0 15 13 37 32 56 31 31 68 41 68 20z m510
2 c0 -5 2 -16 5 -24 4 -10 -1 -13 -17 -11 -13 1 -29 3 -35 3 -20 1 -15 15 10
27 29 15 37 16 37 5z m-2350 -21 c0 -5 -5 -10 -11 -10 -5 0 -7 5 -4 10 3 6 8
10 11 10 2 0 4 -4 4 -10z m125 -7 c-2 -10 -4 -22 -4 -26 -1 -13 -41 13 -41 26
0 8 3 8 9 -1 7 -11 9 -11 14 2 9 22 26 20 22 -1z m1855 -2 c0 -5 -13 -11 -30
-13 -35 -5 -40 9 -7 21 23 9 37 6 37 -8z m-5480 -1 c0 -5 -4 -10 -10 -10 -5 0
-10 5 -10 10 0 6 5 10 10 10 6 0 10 -4 10 -10z m3641 -27 c-8 -15 -10 -15 -11
-2 0 17 10 32 18 25 2 -3 -1 -13 -7 -23z m123 6 c-3 -6 0 -15 7 -20 12 -7 11
-11 -4 -26 -17 -17 -18 -17 -15 7 2 20 -1 25 -19 24 -25 -1 -31 11 -10 19 23
10 48 7 41 -4z m2146 -10 c0 -12 -29 -24 -37 -16 -3 4 -3 13 0 21 6 16 37 11
37 -5z m-5680 1 c0 -5 -2 -10 -4 -10 -3 0 -8 5 -11 10 -3 6 -1 10 4 10 6 0 11
-4 11 -10z m3380 -24 c0 -10 -30 0 -34 11 -4 11 -1 11 14 3 11 -6 20 -12 20
-14z m300 9 c0 -8 -2 -15 -4 -15 -2 0 -6 7 -10 15 -3 8 -1 15 4 15 6 0 10 -7
10 -15z m-56 -11 c3 -8 2 -12 -4 -9 -6 3 -10 10 -10 16 0 14 7 11 14 -7z
m1556 6 c0 -5 -4 -10 -10 -10 -5 0 -10 5 -10 10 0 6 5 10 10 10 6 0 10 -4 10
-10z m-2001 -57 c1 -7 -3 -13 -9 -13 -5 0 -7 6 -4 14 3 7 -3 16 -13 20 -15 6
-15 8 -3 16 15 9 28 -7 29 -37z m476 9 c-3 -3 -11 0 -18 7 -9 10 -8 11 6 5 10
-3 15 -9 12 -12z m-750 -2 c3 -5 1 -10 -4 -10 -6 0 -11 5 -11 10 0 6 2 10 4
10 3 0 8 -4 11 -10z m-3978 -15 c9 -24 -1 -27 -15 -5 -8 13 -8 20 -2 20 6 0
13 -7 17 -15z m1771 -10 c-3 -3 -9 2 -12 12 -6 14 -5 15 5 6 7 -7 10 -15 7
-18z m4419 19 c-3 -3 -12 -4 -19 -1 -8 3 -5 6 6 6 11 1 17 -2 13 -5z m-5644
-21 c-7 -2 -13 -11 -13 -19 0 -8 -4 -14 -10 -14 -5 0 -10 9 -10 20 0 14 6 20
23 19 12 0 16 -3 10 -6z m-343 -23 c0 -5 -4 -10 -9 -10 -6 0 -13 5 -16 10 -3
6 1 10 9 10 9 0 16 -4 16 -10z m3960 -20 c0 -5 -2 -10 -4 -10 -3 0 -8 5 -11
10 -3 6 -1 10 4 10 6 0 11 -4 11 -10z m-3613 -6 c-3 -3 -12 -4 -19 -1 -8 3 -5
6 6 6 11 1 17 -2 13 -5z m-261 -68 c-2 -17 2 -26 10 -26 8 0 14 -7 14 -16 0
-11 5 -14 16 -10 20 8 38 -12 42 -44 3 -27 -8 -31 -90 -30 -25 0 -38 -5 -38
-14 0 -34 -65 -58 -67 -26 -1 11 4 20 11 20 31 0 67 75 82 169 6 36 9 41 15
24 4 -11 6 -32 5 -47z m3914 28 c0 -2 -9 0 -20 6 -11 6 -20 13 -20 16 0 2 9 0
20 -6 11 -6 20 -13 20 -16z m2566 -1 c-10 -10 -19 5 -10 18 6 11 8 11 12 0 2
-7 1 -15 -2 -18z m-6561 1 c25 -16 34 -44 14 -44 -5 0 -7 -6 -4 -12 4 -7 0 -5
-8 5 -13 15 -15 16 -21 2 -3 -8 -10 -15 -16 -15 -6 0 -9 4 -6 8 3 5 7 20 10
35 5 27 -7 37 -19 17 -3 -5 -11 -10 -17 -10 -7 0 -6 6 2 15 16 19 35 19 65 -1z
m4015 -39 c-7 -8 -16 -15 -21 -15 -5 0 -9 7 -9 15 0 9 9 15 21 15 18 0 19 -2
9 -15z m2415 -27 c-10 -32 -18 -39 -34 -29 -10 7 -10 12 5 30 24 27 37 27 29
-1z m-5082 -18 c-3 -11 -12 -20 -19 -20 -8 0 -14 9 -14 20 0 13 7 20 19 20 14
0 18 -5 14 -20z m2825 -5 c-3 -3 -9 2 -12 12 -6 14 -5 15 5 6 7 -7 10 -15 7
-18z m-284 -11 c3 -8 2 -12 -4 -9 -6 3 -10 10 -10 16 0 14 7 11 14 -7z m2387
-31 c-8 -15 -10 -15 -11 -2 0 17 10 32 18 25 2 -3 -1 -13 -7 -23z m-121 7 c0
-5 -4 -10 -10 -10 -5 0 -10 5 -10 10 0 6 5 10 10 10 6 0 10 -4 10 -10z m410
-35 c0 -8 -13 -21 -30 -30 -37 -19 -37 -23 -1 -36 19 -7 34 -23 46 -50 20 -43
34 -52 28 -16 -9 55 55 60 78 6 16 -39 -2 -84 -30 -76 -22 5 -31 -16 -31 -74
0 -20 -7 -42 -15 -49 -8 -7 -15 -18 -15 -25 0 -8 -12 -28 -27 -46 l-27 -32 25
-20 24 -20 -28 7 c-26 6 -27 5 -21 -21 7 -25 6 -27 -9 -14 -10 7 -17 10 -17 5
0 -5 -5 -2 -10 6 -5 8 -7 25 -3 37 4 17 1 23 -11 23 -9 0 -13 -6 -10 -14 3 -8
1 -17 -5 -21 -19 -11 -12 58 9 93 15 25 18 37 10 47 -20 24 -48 24 -75 -1 -14
-13 -28 -24 -30 -24 -14 0 -55 51 -59 74 -4 22 0 29 20 36 13 5 24 16 24 24 0
7 10 16 21 19 16 4 20 11 16 26 -3 12 2 26 10 33 12 10 18 9 30 -7 14 -20 14
-20 29 -1 28 39 15 73 -20 50 -13 -8 -25 -11 -29 -8 -10 10 2 24 20 24 25 0
53 30 53 57 0 15 8 27 23 32 26 10 37 6 37 -14z m-165 -75 c3 -5 -1 -10 -10
-10 -9 0 -13 5 -10 10 3 6 8 10 10 10 2 0 7 -4 10 -10z m-8 -296 c6 -16 -12
-34 -34 -34 -16 0 -17 22 -1 38 16 16 27 15 35 -4z m-27 -198 c-14 -14 -22 -2
-14 18 5 14 9 15 15 4 4 -7 4 -17 -1 -22z m-6410 -20 c0 -11 -19 -15 -25 -6
-3 5 1 10 9 10 9 0 16 -2 16 -4z m6449 -35 c11 -7 9 -11 -9 -21 -25 -14 -33
-9 -24 14 7 18 13 19 33 7z m8 -379 c3 -23 -6 -52 -18 -52 -10 0 -13 63 -2 73
8 9 16 1 20 -21z m-37 -171 c0 -5 -11 -19 -25 -32 -13 -13 -25 -29 -25 -36 0
-6 -6 -13 -12 -16 -10 -3 -10 -9 0 -26 16 -28 15 -46 -4 -62 -8 -7 -13 -21
-10 -31 3 -13 -3 -22 -17 -28 -12 -4 -30 -18 -39 -29 -10 -12 -25 -21 -33 -21
-24 0 -31 31 -10 46 14 10 15 16 6 27 -9 11 -5 23 15 53 15 21 35 45 46 52 26
19 68 65 68 76 0 5 8 15 18 22 21 16 22 16 22 5z m-5889 -178 c13 -16 12 -17
-3 -4 -17 13 -22 21 -14 21 2 0 10 -8 17 -17z m-306 -21 c-3 -3 -11 0 -18 7
-9 10 -8 11 6 5 10 -3 15 -9 12 -12z m35 -55 c0 -5 -4 -5 -10 -2 -5 3 -10 14
-10 23 0 15 2 15 10 2 5 -8 10 -19 10 -23z m-30 13 c0 -5 -4 -10 -10 -10 -5 0
-10 5 -10 10 0 6 5 10 10 10 6 0 10 -4 10 -10z m5893 -14 c5 -14 -10 -36 -25
-36 -4 0 -8 11 -8 25 0 27 24 35 33 11z m-5823 -46 c0 -5 -4 -10 -10 -10 -5 0
-10 5 -10 10 0 6 5 10 10 10 6 0 10 -4 10 -10z m65 -79 c3 -5 1 -12 -4 -15 -5
-3 -11 1 -15 9 -6 16 9 21 19 6z"/>
<path d="M7880 6870 c0 -5 7 -10 15 -10 8 0 15 5 15 10 0 6 -7 10 -15 10 -8 0
-15 -4 -15 -10z"/>
<path d="M8770 6230 c0 -5 5 -10 10 -10 6 0 10 5 10 10 0 6 -4 10 -10 10 -5 0
-10 -4 -10 -10z"/>
<path d="M10032 6135 c0 -16 2 -22 5 -12 2 9 2 23 0 30 -3 6 -5 -1 -5 -18z"/>
<path d="M9024 6196 c-24 -18 -11 -34 25 -28 19 3 28 9 25 17 -8 20 -30 25
-50 11z"/>
<path d="M9335 6050 c-3 -5 -4 -10 -1 -10 2 0 11 -3 20 -6 11 -4 16 -1 16 10
0 18 -25 22 -35 6z"/>
<path d="M10240 5600 c0 -5 9 -10 20 -10 11 0 20 5 20 10 0 6 -9 10 -20 10
-11 0 -20 -4 -20 -10z"/>
<path d="M9480 5650 c0 -5 5 -10 10 -10 6 0 10 5 10 10 0 6 -4 10 -10 10 -5 0
-10 -4 -10 -10z"/>
<path d="M9427 5424 c-11 -12 3 -24 29 -24 16 0 24 5 22 13 -5 13 -40 22 -51
11z"/>
<path d="M9250 5296 c0 -13 6 -15 28 -10 33 8 41 14 19 14 -8 0 -22 3 -31 6
-11 4 -16 1 -16 -10z"/>
<path d="M9480 5300 c8 -5 24 -10 35 -10 17 0 17 2 5 10 -8 5 -24 10 -35 10
-17 0 -17 -2 -5 -10z"/>
<path d="M9194 4494 c-76 -46 -106 -75 -158 -154 -70 -105 -98 -187 -104 -307
-7 -139 20 -293 57 -323 3 -3 19 -24 35 -48 37 -54 130 -141 189 -175 145 -85
336 -106 501 -53 49 15 101 35 115 43 71 44 91 59 91 70 0 7 5 12 11 10 6 -1
25 21 42 48 103 172 121 233 114 385 -7 166 -57 290 -167 413 -62 69 -95 87
-158 89 -56 1 -259 -19 -273 -27 -5 -4 -9 -1 -9 5 0 8 -9 10 -25 6 -25 -6 -97
22 -110 44 -14 23 -91 10 -151 -26z"/>
<path d="M9120 5471 c0 -5 5 -13 10 -16 6 -3 10 -2 10 4 0 5 -4 13 -10 16 -5
3 -10 2 -10 -4z"/>
<path d="M6891 4649 c-31 -18 -49 -34 -45 -41 4 -7 3 -8 -5 -4 -19 12 -107
-92 -150 -179 -50 -98 -64 -162 -65 -285 -1 -105 15 -171 67 -279 39 -82 186
-242 161 -176 -4 8 -1 15 5 15 6 0 11 -8 11 -18 0 -19 33 -52 52 -52 6 0 19
-6 27 -14 44 -40 179 -70 281 -62 87 6 116 13 226 53 224 82 366 268 381 498
6 107 -9 175 -66 298 -53 114 -56 116 -166 105 -110 -11 -93 -11 -193 -4 -94
7 -184 35 -221 69 -31 28 -74 47 -106 47 -13 0 -25 5 -27 11 -2 5 -10 11 -18
13 -8 2 -28 8 -45 15 -16 6 -35 13 -41 15 -6 3 -34 -9 -63 -25z"/>
<path d="M7679 3683 c-13 -16 -12 -17 4 -4 16 13 21 21 13 21 -2 0 -10 -8 -17
-17z"/>
<path d="M10595 4600 c-3 -5 1 -10 9 -10 9 0 16 5 16 10 0 6 -4 10 -9 10 -6 0
-13 -4 -16 -10z"/>
<path d="M10704 4527 c-9 -19 -14 -43 -10 -53 8 -22 15 -15 19 22 2 17 7 36
11 43 4 7 5 15 2 18 -3 3 -13 -10 -22 -30z"/>
<path d="M6943 7509 c-47 -14 -48 -26 -3 -34 33 -5 40 -10 35 -24 -3 -11 4
-26 20 -41 21 -20 28 -22 50 -12 17 8 25 20 25 36 0 14 5 28 10 31 39 24 -78
61 -137 44z"/>
<path d="M5429 7500 c-9 -5 -29 -8 -45 -6 -16 2 -37 -1 -46 -8 -15 -11 -15
-13 4 -25 18 -11 20 -11 14 4 -5 15 -4 16 9 5 12 -10 18 -10 30 0 8 6 19 9 25
5 12 -7 40 11 40 26 0 11 -11 11 -31 -1z"/>
<path d="M6830 7474 c0 -8 5 -12 10 -9 6 4 8 11 5 16 -9 14 -15 11 -15 -7z"/>
<path d="M6015 7454 c-11 -17 -23 -18 -113 -8 -42 4 -67 3 -77 -6 -8 -6 -23
-9 -33 -6 -10 4 -32 0 -48 -9 -16 -8 -38 -15 -49 -16 -16 -1 -17 -2 -3 -6 10
-2 15 -10 11 -19 -3 -8 -2 -31 2 -52 7 -37 7 -37 22 -14 9 12 22 22 31 22 11
0 13 9 9 39 -4 34 -2 39 12 34 9 -3 21 -10 28 -15 7 -5 21 -7 31 -4 10 4 31 0
46 -8 l27 -14 -25 -6 c-14 -3 -34 -16 -45 -27 -50 -54 34 -65 87 -12 18 17 32
41 32 53 0 24 28 39 40 20 5 -8 9 -9 14 -1 4 6 20 11 36 11 39 0 45 14 18 39
-26 25 -40 26 -53 5z"/>
<path d="M7737 7424 c-10 -11 3 -24 24 -24 10 0 19 7 19 15 0 15 -31 21 -43 9z"/>
<path d="M7582 7358 c-6 -6 -12 -25 -12 -41 0 -29 -1 -29 -42 -23 -26 4 -49
15 -59 28 -16 20 -20 21 -57 9 -22 -8 -45 -11 -50 -7 -6 3 -13 2 -17 -3 -3 -5
11 -11 32 -13 33 -3 39 -7 47 -35 7 -27 14 -33 35 -33 14 0 32 4 40 9 8 5 27
5 44 0 20 -5 35 -5 41 1 6 6 23 10 38 10 38 0 44 21 21 67 -19 40 -41 51 -61
31z"/>
<path d="M5453 7316 c-25 -12 -29 -21 -13 -31 6 -3 13 1 16 9 3 9 15 16 26 16
10 0 16 5 13 10 -7 12 -12 11 -42 -4z"/>
<path d="M5390 7289 c0 -5 5 -7 10 -4 6 3 10 8 10 11 0 2 -4 4 -10 4 -5 0 -10
-5 -10 -11z"/>
<path d="M7905 7281 c-3 -5 -1 -12 5 -16 5 -3 10 1 10 9 0 18 -6 21 -15 7z"/>
<path d="M8047 7266 c-19 -15 -26 -28 -21 -39 7 -18 24 -23 24 -8 0 5 7 17 16
25 8 9 14 22 12 30 -2 11 -9 9 -31 -8z"/>
<path d="M7890 7240 c0 -5 5 -10 10 -10 6 0 10 5 10 10 0 6 -4 10 -10 10 -5 0
-10 -4 -10 -10z"/>
<path d="M7990 7185 c0 -8 2 -15 4 -15 2 0 6 7 10 15 3 8 1 15 -4 15 -6 0 -10
-7 -10 -15z"/>
<path d="M8974 7113 c-6 -5 -17 -19 -24 -32 -11 -22 -10 -26 14 -44 14 -10 26
-27 26 -38 0 -12 10 -23 26 -29 37 -14 43 -13 56 15 6 14 22 28 35 31 13 4 23
8 23 11 0 9 -55 73 -64 73 -5 0 -3 -7 4 -15 16 -19 -1 -65 -24 -65 -21 0 -40
28 -29 43 16 21 9 52 -12 55 -11 1 -25 -1 -31 -5z m81 -131 c-3 -3 -11 0 -18
7 -9 10 -8 11 6 5 10 -3 15 -9 12 -12z"/>
<path d="M8438 7073 c7 -3 16 -2 19 1 4 3 -2 6 -13 5 -11 0 -14 -3 -6 -6z"/>
<path d="M8847 7073 c-14 -13 -6 -23 18 -23 16 0 25 6 25 15 0 15 -31 21 -43
8z"/>
<path d="M9272 7048 c-19 -19 -14 -56 11 -74 l23 -17 -23 -23 c-26 -26 -21
-60 10 -67 59 -14 115 -18 121 -9 3 6 -3 13 -14 17 -16 5 -20 15 -20 46 0 37
-2 39 -31 39 -31 0 -31 1 -25 40 5 32 3 41 -13 50 -24 13 -24 13 -39 -2z"/>
<path d="M8497 7014 c-10 -11 5 -34 22 -34 9 0 23 -6 30 -12 10 -11 15 -10 25
3 19 27 48 -1 51 -48 3 -48 2 -47 21 -29 12 12 14 26 9 56 -4 22 -10 38 -15
35 -4 -3 -11 2 -14 11 -5 12 -14 15 -40 10 -20 -4 -37 -2 -41 4 -7 11 -38 14
-48 4z"/>
<path d="M8719 6998 c0 -2 -2 -16 -3 -31 -2 -25 0 -27 11 -11 7 10 13 21 13
25 0 8 -19 23 -21 17z"/>
<path d="M8497 6953 c-12 -11 -8 -20 18 -31 31 -14 47 5 20 25 -21 15 -29 16
-38 6z"/>
<path d="M9692 6890 c-16 -26 -15 -30 3 -30 9 0 15 9 15 25 0 30 -2 31 -18 5z"/>
<path d="M8470 6800 c0 -5 5 -10 11 -10 5 0 7 5 4 10 -3 6 -8 10 -11 10 -2 0
-4 -4 -4 -10z"/>
<path d="M4120 6770 c0 -5 5 -10 11 -10 5 0 7 5 4 10 -3 6 -8 10 -11 10 -2 0
-4 -4 -4 -10z"/>
<path d="M8535 6750 c-10 -11 -22 -17 -27 -14 -6 4 -5 10 3 15 9 6 -8 7 -41 3
-56 -7 -70 -16 -70 -46 0 -13 8 -18 29 -18 16 0 34 -7 41 -15 11 -14 14 -13
27 5 9 12 25 20 44 20 25 0 28 3 21 16 -5 9 -7 25 -5 35 7 24 1 24 -22 -1z"/>
<path d="M9692 6763 c-10 -4 -8 -9 7 -20 12 -8 21 -22 22 -31 0 -12 3 -10 10
6 6 17 5 27 -5 38 -8 8 -16 14 -18 13 -2 0 -9 -3 -16 -6z"/>
<path d="M9747 6750 c4 -14 14 -20 34 -20 35 0 46 16 20 29 -34 18 -60 14 -54
-9z"/>
<path d="M9845 6690 c-9 -15 14 -40 36 -40 27 0 34 19 13 35 -23 17 -41 19
-49 5z"/>
<path d="M10287 6673 c-23 -4 -25 -6 -13 -19 19 -18 23 -18 36 6 6 11 9 19 8
19 -2 -1 -15 -4 -31 -6z"/>
<path d="M8777 6654 c-12 -13 -8 -22 14 -27 15 -4 19 -1 17 10 -3 18 -21 27
-31 17z"/>
<path d="M10195 6630 c-3 -5 1 -10 9 -10 9 0 16 5 16 10 0 6 -4 10 -9 10 -6 0
-13 -4 -16 -10z"/>
<path d="M10160 6619 c0 -5 5 -7 10 -4 6 3 10 8 10 11 0 2 -4 4 -10 4 -5 0
-10 -5 -10 -11z"/>
<path d="M9106 6605 c-3 -9 0 -15 9 -15 16 0 20 16 6 24 -5 3 -11 -1 -15 -9z"/>
<path d="M9290 6582 c0 -11 -9 -27 -20 -37 -27 -24 -25 -35 5 -35 23 0 25 4
25 45 0 25 -2 45 -5 45 -3 0 -5 -8 -5 -18z"/>
<path d="M9190 6577 c0 -19 16 -31 24 -18 3 5 -1 14 -9 21 -12 10 -15 10 -15
-3z"/>
<path d="M10275 6580 c3 -5 8 -10 11 -10 2 0 4 5 4 10 0 6 -5 10 -11 10 -5 0
-7 -4 -4 -10z"/>
<path d="M10390 6572 c0 -12 19 -26 26 -19 2 2 -2 10 -11 17 -9 8 -15 8 -15 2z"/>
<path d="M10872 6140 c-6 -10 -27 -21 -46 -24 -37 -7 -41 -12 -28 -32 11 -16
78 -24 111 -13 27 9 28 12 18 38 -15 40 -40 54 -55 31z"/>
<path d="M11585 5900 c-7 -12 2 -30 16 -30 12 0 12 27 0 35 -5 3 -12 1 -16 -5z"/>
<path d="M11691 5821 c13 -11 26 -18 28 -15 7 7 -21 34 -36 34 -10 0 -8 -6 8
-19z"/>
<path d="M11739 5766 c12 -13 23 -32 24 -44 0 -12 6 -18 14 -15 17 7 16 11 -2
29 -8 9 -15 24 -15 35 0 13 -7 19 -22 19 l-21 0 22 -24z"/>
<path d="M11600 5704 c0 -8 5 -12 10 -9 6 4 8 11 5 16 -9 14 -15 11 -15 -7z"/>
<path d="M3870 5641 c0 -6 5 -13 10 -16 6 -3 10 1 10 9 0 9 -4 16 -10 16 -5 0
-10 -4 -10 -9z"/>
<path d="M11365 4149 c-4 -6 -5 -12 -2 -15 2 -3 7 2 10 11 7 17 1 20 -8 4z"/>
<path d="M3950 4081 c0 -11 5 -23 10 -26 6 -3 10 3 10 14 0 11 -4 23 -10 26
-5 3 -10 -3 -10 -14z"/>
</g>
</svg>
